G04 MADE WITH FRITZING*
G04 WWW.FRITZING.ORG*
G04 DOUBLE SIDED*
G04 HOLES PLATED*
G04 CONTOUR ON CENTER OF CONTOUR VECTOR*
%ASAXBY*%
%FSLAX23Y23*%
%MOIN*%
%OFA0B0*%
%SFA1.0B1.0*%
%ADD10C,0.010000*%
%ADD11C,0.005000*%
%ADD12C,0.008000*%
%ADD13R,0.001000X0.001000*%
%LNSILK1*%
G90*
G70*
G54D10*
X761Y746D02*
X1161Y746D01*
D02*
X1161Y746D02*
X1161Y566D01*
D02*
X1161Y566D02*
X761Y566D01*
D02*
X761Y566D02*
X761Y746D01*
D02*
X761Y746D02*
X1161Y746D01*
D02*
X1161Y746D02*
X1161Y686D01*
D02*
X1161Y686D02*
X761Y686D01*
D02*
X761Y686D02*
X761Y746D01*
G54D11*
D02*
X891Y746D02*
X891Y686D01*
D02*
X1031Y746D02*
X1031Y686D01*
G54D10*
D02*
X1111Y376D02*
X911Y376D01*
D02*
X911Y376D02*
X911Y276D01*
D02*
X911Y276D02*
X1111Y276D01*
D02*
X1111Y276D02*
X1111Y376D01*
D02*
X611Y576D02*
X611Y376D01*
D02*
X611Y376D02*
X711Y376D01*
D02*
X711Y376D02*
X711Y576D01*
D02*
X711Y576D02*
X611Y576D01*
G54D12*
D02*
X438Y662D02*
X355Y662D01*
D02*
X438Y241D02*
X438Y450D01*
D02*
X84Y241D02*
X84Y662D01*
D02*
X84Y662D02*
X166Y662D01*
D02*
X84Y241D02*
X438Y241D01*
G54D13*
X0Y783D02*
X1389Y783D01*
X0Y782D02*
X1389Y782D01*
X0Y781D02*
X1389Y781D01*
X0Y780D02*
X1389Y780D01*
X0Y779D02*
X1389Y779D01*
X0Y778D02*
X1389Y778D01*
X0Y777D02*
X1389Y777D01*
X0Y776D02*
X1389Y776D01*
X0Y775D02*
X7Y775D01*
X1382Y775D02*
X1389Y775D01*
X0Y774D02*
X7Y774D01*
X1382Y774D02*
X1389Y774D01*
X0Y773D02*
X7Y773D01*
X1382Y773D02*
X1389Y773D01*
X0Y772D02*
X7Y772D01*
X1382Y772D02*
X1389Y772D01*
X0Y771D02*
X7Y771D01*
X1382Y771D02*
X1389Y771D01*
X0Y770D02*
X7Y770D01*
X1382Y770D02*
X1389Y770D01*
X0Y769D02*
X7Y769D01*
X1382Y769D02*
X1389Y769D01*
X0Y768D02*
X7Y768D01*
X1382Y768D02*
X1389Y768D01*
X0Y767D02*
X7Y767D01*
X1382Y767D02*
X1389Y767D01*
X0Y766D02*
X7Y766D01*
X1382Y766D02*
X1389Y766D01*
X0Y765D02*
X7Y765D01*
X1382Y765D02*
X1389Y765D01*
X0Y764D02*
X7Y764D01*
X1382Y764D02*
X1389Y764D01*
X0Y763D02*
X7Y763D01*
X1382Y763D02*
X1389Y763D01*
X0Y762D02*
X7Y762D01*
X1382Y762D02*
X1389Y762D01*
X0Y761D02*
X7Y761D01*
X1382Y761D02*
X1389Y761D01*
X0Y760D02*
X7Y760D01*
X1382Y760D02*
X1389Y760D01*
X0Y759D02*
X7Y759D01*
X1382Y759D02*
X1389Y759D01*
X0Y758D02*
X7Y758D01*
X1382Y758D02*
X1389Y758D01*
X0Y757D02*
X7Y757D01*
X1382Y757D02*
X1389Y757D01*
X0Y756D02*
X7Y756D01*
X1382Y756D02*
X1389Y756D01*
X0Y755D02*
X7Y755D01*
X1202Y755D02*
X1204Y755D01*
X1230Y755D02*
X1232Y755D01*
X1252Y755D02*
X1270Y755D01*
X1382Y755D02*
X1389Y755D01*
X0Y754D02*
X7Y754D01*
X1201Y754D02*
X1205Y754D01*
X1229Y754D02*
X1233Y754D01*
X1251Y754D02*
X1270Y754D01*
X1382Y754D02*
X1389Y754D01*
X0Y753D02*
X7Y753D01*
X1200Y753D02*
X1206Y753D01*
X1228Y753D02*
X1234Y753D01*
X1251Y753D02*
X1270Y753D01*
X1382Y753D02*
X1389Y753D01*
X0Y752D02*
X7Y752D01*
X1200Y752D02*
X1206Y752D01*
X1228Y752D02*
X1234Y752D01*
X1250Y752D02*
X1270Y752D01*
X1382Y752D02*
X1389Y752D01*
X0Y751D02*
X7Y751D01*
X1200Y751D02*
X1206Y751D01*
X1228Y751D02*
X1234Y751D01*
X1251Y751D02*
X1270Y751D01*
X1382Y751D02*
X1389Y751D01*
X0Y750D02*
X7Y750D01*
X483Y750D02*
X484Y750D01*
X509Y750D02*
X535Y750D01*
X1200Y750D02*
X1206Y750D01*
X1228Y750D02*
X1234Y750D01*
X1251Y750D02*
X1270Y750D01*
X1382Y750D02*
X1389Y750D01*
X0Y749D02*
X7Y749D01*
X482Y749D02*
X486Y749D01*
X508Y749D02*
X537Y749D01*
X1200Y749D02*
X1206Y749D01*
X1228Y749D02*
X1234Y749D01*
X1252Y749D02*
X1270Y749D01*
X1382Y749D02*
X1389Y749D01*
X0Y748D02*
X7Y748D01*
X481Y748D02*
X486Y748D01*
X507Y748D02*
X538Y748D01*
X1200Y748D02*
X1206Y748D01*
X1228Y748D02*
X1234Y748D01*
X1264Y748D02*
X1270Y748D01*
X1382Y748D02*
X1389Y748D01*
X0Y747D02*
X7Y747D01*
X481Y747D02*
X487Y747D01*
X507Y747D02*
X539Y747D01*
X1200Y747D02*
X1206Y747D01*
X1228Y747D02*
X1234Y747D01*
X1264Y747D02*
X1270Y747D01*
X1382Y747D02*
X1389Y747D01*
X0Y746D02*
X7Y746D01*
X481Y746D02*
X487Y746D01*
X507Y746D02*
X540Y746D01*
X1200Y746D02*
X1206Y746D01*
X1228Y746D02*
X1234Y746D01*
X1264Y746D02*
X1270Y746D01*
X1382Y746D02*
X1389Y746D01*
X0Y745D02*
X7Y745D01*
X481Y745D02*
X487Y745D01*
X507Y745D02*
X540Y745D01*
X1200Y745D02*
X1206Y745D01*
X1228Y745D02*
X1234Y745D01*
X1264Y745D02*
X1270Y745D01*
X1382Y745D02*
X1389Y745D01*
X0Y744D02*
X7Y744D01*
X481Y744D02*
X487Y744D01*
X508Y744D02*
X540Y744D01*
X1200Y744D02*
X1206Y744D01*
X1228Y744D02*
X1234Y744D01*
X1264Y744D02*
X1270Y744D01*
X1382Y744D02*
X1389Y744D01*
X0Y743D02*
X7Y743D01*
X481Y743D02*
X487Y743D01*
X534Y743D02*
X540Y743D01*
X1200Y743D02*
X1206Y743D01*
X1228Y743D02*
X1234Y743D01*
X1264Y743D02*
X1270Y743D01*
X1382Y743D02*
X1389Y743D01*
X0Y742D02*
X7Y742D01*
X481Y742D02*
X487Y742D01*
X534Y742D02*
X540Y742D01*
X1200Y742D02*
X1206Y742D01*
X1228Y742D02*
X1234Y742D01*
X1264Y742D02*
X1270Y742D01*
X1382Y742D02*
X1389Y742D01*
X0Y741D02*
X7Y741D01*
X481Y741D02*
X487Y741D01*
X534Y741D02*
X540Y741D01*
X1200Y741D02*
X1206Y741D01*
X1228Y741D02*
X1234Y741D01*
X1264Y741D02*
X1270Y741D01*
X1382Y741D02*
X1389Y741D01*
X0Y740D02*
X7Y740D01*
X481Y740D02*
X487Y740D01*
X534Y740D02*
X540Y740D01*
X1200Y740D02*
X1206Y740D01*
X1228Y740D02*
X1234Y740D01*
X1264Y740D02*
X1270Y740D01*
X1382Y740D02*
X1389Y740D01*
X0Y739D02*
X7Y739D01*
X481Y739D02*
X487Y739D01*
X534Y739D02*
X540Y739D01*
X1200Y739D02*
X1206Y739D01*
X1228Y739D02*
X1234Y739D01*
X1264Y739D02*
X1270Y739D01*
X1382Y739D02*
X1389Y739D01*
X0Y738D02*
X7Y738D01*
X481Y738D02*
X487Y738D01*
X534Y738D02*
X540Y738D01*
X1200Y738D02*
X1206Y738D01*
X1228Y738D02*
X1234Y738D01*
X1264Y738D02*
X1270Y738D01*
X1382Y738D02*
X1389Y738D01*
X0Y737D02*
X7Y737D01*
X481Y737D02*
X487Y737D01*
X534Y737D02*
X540Y737D01*
X1200Y737D02*
X1206Y737D01*
X1228Y737D02*
X1234Y737D01*
X1264Y737D02*
X1270Y737D01*
X1382Y737D02*
X1389Y737D01*
X0Y736D02*
X7Y736D01*
X481Y736D02*
X487Y736D01*
X534Y736D02*
X540Y736D01*
X1200Y736D02*
X1206Y736D01*
X1228Y736D02*
X1234Y736D01*
X1264Y736D02*
X1270Y736D01*
X1382Y736D02*
X1389Y736D01*
X0Y735D02*
X7Y735D01*
X481Y735D02*
X487Y735D01*
X534Y735D02*
X540Y735D01*
X1200Y735D02*
X1206Y735D01*
X1228Y735D02*
X1234Y735D01*
X1264Y735D02*
X1270Y735D01*
X1382Y735D02*
X1389Y735D01*
X0Y734D02*
X7Y734D01*
X481Y734D02*
X487Y734D01*
X534Y734D02*
X540Y734D01*
X1200Y734D02*
X1206Y734D01*
X1228Y734D02*
X1234Y734D01*
X1264Y734D02*
X1270Y734D01*
X1382Y734D02*
X1389Y734D01*
X0Y733D02*
X7Y733D01*
X481Y733D02*
X487Y733D01*
X534Y733D02*
X540Y733D01*
X1200Y733D02*
X1206Y733D01*
X1228Y733D02*
X1234Y733D01*
X1264Y733D02*
X1270Y733D01*
X1382Y733D02*
X1389Y733D01*
X0Y732D02*
X7Y732D01*
X481Y732D02*
X487Y732D01*
X534Y732D02*
X540Y732D01*
X1200Y732D02*
X1206Y732D01*
X1228Y732D02*
X1234Y732D01*
X1264Y732D02*
X1270Y732D01*
X1382Y732D02*
X1389Y732D01*
X0Y731D02*
X7Y731D01*
X481Y731D02*
X487Y731D01*
X534Y731D02*
X540Y731D01*
X1200Y731D02*
X1206Y731D01*
X1228Y731D02*
X1234Y731D01*
X1264Y731D02*
X1270Y731D01*
X1382Y731D02*
X1389Y731D01*
X0Y730D02*
X7Y730D01*
X481Y730D02*
X487Y730D01*
X534Y730D02*
X540Y730D01*
X1200Y730D02*
X1206Y730D01*
X1228Y730D02*
X1234Y730D01*
X1264Y730D02*
X1270Y730D01*
X1382Y730D02*
X1389Y730D01*
X0Y729D02*
X7Y729D01*
X481Y729D02*
X487Y729D01*
X534Y729D02*
X540Y729D01*
X1200Y729D02*
X1206Y729D01*
X1228Y729D02*
X1234Y729D01*
X1264Y729D02*
X1270Y729D01*
X1382Y729D02*
X1389Y729D01*
X0Y728D02*
X7Y728D01*
X481Y728D02*
X487Y728D01*
X533Y728D02*
X540Y728D01*
X1200Y728D02*
X1206Y728D01*
X1228Y728D02*
X1234Y728D01*
X1264Y728D02*
X1270Y728D01*
X1382Y728D02*
X1389Y728D01*
X0Y727D02*
X7Y727D01*
X481Y727D02*
X487Y727D01*
X532Y727D02*
X540Y727D01*
X1200Y727D02*
X1206Y727D01*
X1228Y727D02*
X1234Y727D01*
X1264Y727D02*
X1270Y727D01*
X1382Y727D02*
X1389Y727D01*
X0Y726D02*
X7Y726D01*
X481Y726D02*
X487Y726D01*
X515Y726D02*
X539Y726D01*
X1200Y726D02*
X1206Y726D01*
X1228Y726D02*
X1234Y726D01*
X1264Y726D02*
X1270Y726D01*
X1382Y726D02*
X1389Y726D01*
X0Y725D02*
X7Y725D01*
X481Y725D02*
X487Y725D01*
X514Y725D02*
X539Y725D01*
X1200Y725D02*
X1206Y725D01*
X1228Y725D02*
X1234Y725D01*
X1264Y725D02*
X1270Y725D01*
X1279Y725D02*
X1283Y725D01*
X1382Y725D02*
X1389Y725D01*
X0Y724D02*
X7Y724D01*
X481Y724D02*
X487Y724D01*
X514Y724D02*
X538Y724D01*
X1200Y724D02*
X1206Y724D01*
X1228Y724D02*
X1234Y724D01*
X1264Y724D02*
X1270Y724D01*
X1278Y724D02*
X1284Y724D01*
X1382Y724D02*
X1389Y724D01*
X0Y723D02*
X7Y723D01*
X481Y723D02*
X487Y723D01*
X514Y723D02*
X538Y723D01*
X1200Y723D02*
X1206Y723D01*
X1228Y723D02*
X1234Y723D01*
X1264Y723D02*
X1270Y723D01*
X1278Y723D02*
X1284Y723D01*
X1382Y723D02*
X1389Y723D01*
X0Y722D02*
X7Y722D01*
X481Y722D02*
X487Y722D01*
X514Y722D02*
X538Y722D01*
X1200Y722D02*
X1206Y722D01*
X1228Y722D02*
X1234Y722D01*
X1264Y722D02*
X1270Y722D01*
X1278Y722D02*
X1284Y722D01*
X1382Y722D02*
X1389Y722D01*
X0Y721D02*
X7Y721D01*
X481Y721D02*
X487Y721D01*
X514Y721D02*
X539Y721D01*
X1200Y721D02*
X1206Y721D01*
X1228Y721D02*
X1234Y721D01*
X1264Y721D02*
X1270Y721D01*
X1278Y721D02*
X1284Y721D01*
X1382Y721D02*
X1389Y721D01*
X0Y720D02*
X7Y720D01*
X461Y720D02*
X465Y720D01*
X481Y720D02*
X487Y720D01*
X516Y720D02*
X540Y720D01*
X1200Y720D02*
X1206Y720D01*
X1228Y720D02*
X1234Y720D01*
X1264Y720D02*
X1270Y720D01*
X1278Y720D02*
X1284Y720D01*
X1382Y720D02*
X1389Y720D01*
X0Y719D02*
X7Y719D01*
X461Y719D02*
X466Y719D01*
X481Y719D02*
X487Y719D01*
X533Y719D02*
X540Y719D01*
X1200Y719D02*
X1206Y719D01*
X1228Y719D02*
X1234Y719D01*
X1264Y719D02*
X1270Y719D01*
X1278Y719D02*
X1284Y719D01*
X1382Y719D02*
X1389Y719D01*
X0Y718D02*
X7Y718D01*
X460Y718D02*
X466Y718D01*
X481Y718D02*
X487Y718D01*
X534Y718D02*
X540Y718D01*
X1200Y718D02*
X1206Y718D01*
X1228Y718D02*
X1234Y718D01*
X1264Y718D02*
X1270Y718D01*
X1278Y718D02*
X1284Y718D01*
X1382Y718D02*
X1389Y718D01*
X0Y717D02*
X7Y717D01*
X460Y717D02*
X466Y717D01*
X481Y717D02*
X487Y717D01*
X534Y717D02*
X540Y717D01*
X1200Y717D02*
X1206Y717D01*
X1228Y717D02*
X1234Y717D01*
X1264Y717D02*
X1270Y717D01*
X1278Y717D02*
X1284Y717D01*
X1382Y717D02*
X1389Y717D01*
X0Y716D02*
X7Y716D01*
X460Y716D02*
X466Y716D01*
X481Y716D02*
X487Y716D01*
X534Y716D02*
X540Y716D01*
X1200Y716D02*
X1206Y716D01*
X1228Y716D02*
X1234Y716D01*
X1264Y716D02*
X1270Y716D01*
X1278Y716D02*
X1284Y716D01*
X1382Y716D02*
X1389Y716D01*
X0Y715D02*
X7Y715D01*
X460Y715D02*
X466Y715D01*
X481Y715D02*
X487Y715D01*
X534Y715D02*
X540Y715D01*
X1200Y715D02*
X1206Y715D01*
X1228Y715D02*
X1234Y715D01*
X1264Y715D02*
X1270Y715D01*
X1278Y715D02*
X1284Y715D01*
X1382Y715D02*
X1389Y715D01*
X0Y714D02*
X7Y714D01*
X460Y714D02*
X466Y714D01*
X481Y714D02*
X487Y714D01*
X534Y714D02*
X540Y714D01*
X1200Y714D02*
X1206Y714D01*
X1228Y714D02*
X1234Y714D01*
X1264Y714D02*
X1270Y714D01*
X1278Y714D02*
X1284Y714D01*
X1382Y714D02*
X1389Y714D01*
X0Y713D02*
X7Y713D01*
X460Y713D02*
X466Y713D01*
X481Y713D02*
X487Y713D01*
X534Y713D02*
X540Y713D01*
X1200Y713D02*
X1206Y713D01*
X1228Y713D02*
X1234Y713D01*
X1264Y713D02*
X1270Y713D01*
X1278Y713D02*
X1284Y713D01*
X1382Y713D02*
X1389Y713D01*
X0Y712D02*
X7Y712D01*
X460Y712D02*
X466Y712D01*
X481Y712D02*
X487Y712D01*
X534Y712D02*
X540Y712D01*
X1200Y712D02*
X1206Y712D01*
X1228Y712D02*
X1234Y712D01*
X1264Y712D02*
X1270Y712D01*
X1278Y712D02*
X1284Y712D01*
X1382Y712D02*
X1389Y712D01*
X0Y711D02*
X7Y711D01*
X460Y711D02*
X466Y711D01*
X481Y711D02*
X487Y711D01*
X534Y711D02*
X540Y711D01*
X1200Y711D02*
X1206Y711D01*
X1228Y711D02*
X1234Y711D01*
X1264Y711D02*
X1270Y711D01*
X1278Y711D02*
X1284Y711D01*
X1382Y711D02*
X1389Y711D01*
X0Y710D02*
X7Y710D01*
X460Y710D02*
X466Y710D01*
X481Y710D02*
X487Y710D01*
X534Y710D02*
X540Y710D01*
X1200Y710D02*
X1207Y710D01*
X1227Y710D02*
X1234Y710D01*
X1264Y710D02*
X1270Y710D01*
X1278Y710D02*
X1284Y710D01*
X1382Y710D02*
X1389Y710D01*
X0Y709D02*
X7Y709D01*
X460Y709D02*
X466Y709D01*
X481Y709D02*
X487Y709D01*
X534Y709D02*
X540Y709D01*
X1201Y709D02*
X1208Y709D01*
X1226Y709D02*
X1233Y709D01*
X1264Y709D02*
X1270Y709D01*
X1278Y709D02*
X1284Y709D01*
X1382Y709D02*
X1389Y709D01*
X0Y708D02*
X7Y708D01*
X460Y708D02*
X466Y708D01*
X481Y708D02*
X487Y708D01*
X534Y708D02*
X540Y708D01*
X1201Y708D02*
X1233Y708D01*
X1253Y708D02*
X1284Y708D01*
X1382Y708D02*
X1389Y708D01*
X0Y707D02*
X7Y707D01*
X460Y707D02*
X466Y707D01*
X481Y707D02*
X487Y707D01*
X534Y707D02*
X540Y707D01*
X1201Y707D02*
X1233Y707D01*
X1251Y707D02*
X1284Y707D01*
X1382Y707D02*
X1389Y707D01*
X0Y706D02*
X7Y706D01*
X460Y706D02*
X466Y706D01*
X481Y706D02*
X487Y706D01*
X534Y706D02*
X540Y706D01*
X1202Y706D02*
X1232Y706D01*
X1251Y706D02*
X1284Y706D01*
X1382Y706D02*
X1389Y706D01*
X0Y705D02*
X7Y705D01*
X460Y705D02*
X466Y705D01*
X480Y705D02*
X487Y705D01*
X534Y705D02*
X540Y705D01*
X1203Y705D02*
X1231Y705D01*
X1250Y705D02*
X1284Y705D01*
X1382Y705D02*
X1389Y705D01*
X0Y704D02*
X7Y704D01*
X460Y704D02*
X467Y704D01*
X479Y704D02*
X486Y704D01*
X534Y704D02*
X540Y704D01*
X1204Y704D02*
X1230Y704D01*
X1251Y704D02*
X1284Y704D01*
X1382Y704D02*
X1389Y704D01*
X0Y703D02*
X7Y703D01*
X461Y703D02*
X486Y703D01*
X510Y703D02*
X540Y703D01*
X1205Y703D02*
X1229Y703D01*
X1251Y703D02*
X1283Y703D01*
X1382Y703D02*
X1389Y703D01*
X0Y702D02*
X7Y702D01*
X461Y702D02*
X486Y702D01*
X508Y702D02*
X540Y702D01*
X1207Y702D02*
X1227Y702D01*
X1252Y702D02*
X1282Y702D01*
X1382Y702D02*
X1389Y702D01*
X0Y701D02*
X7Y701D01*
X462Y701D02*
X485Y701D01*
X507Y701D02*
X540Y701D01*
X1382Y701D02*
X1389Y701D01*
X0Y700D02*
X7Y700D01*
X462Y700D02*
X484Y700D01*
X507Y700D02*
X540Y700D01*
X1382Y700D02*
X1389Y700D01*
X0Y699D02*
X7Y699D01*
X463Y699D02*
X483Y699D01*
X507Y699D02*
X539Y699D01*
X1382Y699D02*
X1389Y699D01*
X0Y698D02*
X7Y698D01*
X465Y698D02*
X482Y698D01*
X507Y698D02*
X538Y698D01*
X1382Y698D02*
X1389Y698D01*
X0Y697D02*
X7Y697D01*
X466Y697D02*
X480Y697D01*
X508Y697D02*
X537Y697D01*
X1382Y697D02*
X1389Y697D01*
X0Y696D02*
X7Y696D01*
X1382Y696D02*
X1389Y696D01*
X0Y695D02*
X7Y695D01*
X1382Y695D02*
X1389Y695D01*
X0Y694D02*
X7Y694D01*
X1382Y694D02*
X1389Y694D01*
X0Y693D02*
X7Y693D01*
X1382Y693D02*
X1389Y693D01*
X0Y692D02*
X7Y692D01*
X1382Y692D02*
X1389Y692D01*
X0Y691D02*
X7Y691D01*
X1382Y691D02*
X1389Y691D01*
X0Y690D02*
X7Y690D01*
X1382Y690D02*
X1389Y690D01*
X0Y689D02*
X7Y689D01*
X1382Y689D02*
X1389Y689D01*
X0Y688D02*
X7Y688D01*
X1382Y688D02*
X1389Y688D01*
X0Y687D02*
X7Y687D01*
X1382Y687D02*
X1389Y687D01*
X0Y686D02*
X7Y686D01*
X1382Y686D02*
X1389Y686D01*
X0Y685D02*
X7Y685D01*
X1382Y685D02*
X1389Y685D01*
X0Y684D02*
X7Y684D01*
X1382Y684D02*
X1389Y684D01*
X0Y683D02*
X7Y683D01*
X1382Y683D02*
X1389Y683D01*
X0Y682D02*
X7Y682D01*
X1382Y682D02*
X1389Y682D01*
X0Y681D02*
X7Y681D01*
X1382Y681D02*
X1389Y681D01*
X0Y680D02*
X7Y680D01*
X1382Y680D02*
X1389Y680D01*
X0Y679D02*
X7Y679D01*
X1382Y679D02*
X1389Y679D01*
X0Y678D02*
X7Y678D01*
X1382Y678D02*
X1389Y678D01*
X0Y677D02*
X7Y677D01*
X1382Y677D02*
X1389Y677D01*
X0Y676D02*
X7Y676D01*
X1382Y676D02*
X1389Y676D01*
X0Y675D02*
X7Y675D01*
X1382Y675D02*
X1389Y675D01*
X0Y674D02*
X7Y674D01*
X1382Y674D02*
X1389Y674D01*
X0Y673D02*
X7Y673D01*
X1382Y673D02*
X1389Y673D01*
X0Y672D02*
X7Y672D01*
X1382Y672D02*
X1389Y672D01*
X0Y671D02*
X7Y671D01*
X1382Y671D02*
X1389Y671D01*
X0Y670D02*
X7Y670D01*
X1382Y670D02*
X1389Y670D01*
X0Y669D02*
X7Y669D01*
X1382Y669D02*
X1389Y669D01*
X0Y668D02*
X7Y668D01*
X1382Y668D02*
X1389Y668D01*
X0Y667D02*
X7Y667D01*
X437Y667D02*
X437Y667D01*
X1382Y667D02*
X1389Y667D01*
X0Y666D02*
X7Y666D01*
X435Y666D02*
X439Y666D01*
X1382Y666D02*
X1389Y666D01*
X0Y665D02*
X7Y665D01*
X434Y665D02*
X440Y665D01*
X1382Y665D02*
X1389Y665D01*
X0Y664D02*
X7Y664D01*
X434Y664D02*
X441Y664D01*
X1382Y664D02*
X1389Y664D01*
X0Y663D02*
X7Y663D01*
X434Y663D02*
X441Y663D01*
X1382Y663D02*
X1389Y663D01*
X0Y662D02*
X7Y662D01*
X434Y662D02*
X441Y662D01*
X1382Y662D02*
X1389Y662D01*
X0Y661D02*
X7Y661D01*
X434Y661D02*
X441Y661D01*
X1382Y661D02*
X1389Y661D01*
X0Y660D02*
X7Y660D01*
X434Y660D02*
X441Y660D01*
X1382Y660D02*
X1389Y660D01*
X0Y659D02*
X7Y659D01*
X434Y659D02*
X441Y659D01*
X1382Y659D02*
X1389Y659D01*
X0Y658D02*
X7Y658D01*
X434Y658D02*
X441Y658D01*
X1382Y658D02*
X1389Y658D01*
X0Y657D02*
X7Y657D01*
X434Y657D02*
X441Y657D01*
X1382Y657D02*
X1389Y657D01*
X0Y656D02*
X7Y656D01*
X434Y656D02*
X441Y656D01*
X1382Y656D02*
X1389Y656D01*
X0Y655D02*
X7Y655D01*
X434Y655D02*
X441Y655D01*
X1382Y655D02*
X1389Y655D01*
X0Y654D02*
X7Y654D01*
X434Y654D02*
X441Y654D01*
X1382Y654D02*
X1389Y654D01*
X0Y653D02*
X7Y653D01*
X434Y653D02*
X441Y653D01*
X1382Y653D02*
X1389Y653D01*
X0Y652D02*
X7Y652D01*
X434Y652D02*
X441Y652D01*
X1382Y652D02*
X1389Y652D01*
X0Y651D02*
X7Y651D01*
X434Y651D02*
X441Y651D01*
X1382Y651D02*
X1389Y651D01*
X0Y650D02*
X7Y650D01*
X434Y650D02*
X441Y650D01*
X1382Y650D02*
X1389Y650D01*
X0Y649D02*
X7Y649D01*
X434Y649D02*
X441Y649D01*
X1382Y649D02*
X1389Y649D01*
X0Y648D02*
X7Y648D01*
X434Y648D02*
X441Y648D01*
X1382Y648D02*
X1389Y648D01*
X0Y647D02*
X7Y647D01*
X434Y647D02*
X441Y647D01*
X1382Y647D02*
X1389Y647D01*
X0Y646D02*
X7Y646D01*
X434Y646D02*
X441Y646D01*
X1382Y646D02*
X1389Y646D01*
X0Y645D02*
X7Y645D01*
X434Y645D02*
X441Y645D01*
X1382Y645D02*
X1389Y645D01*
X0Y644D02*
X7Y644D01*
X434Y644D02*
X441Y644D01*
X1382Y644D02*
X1389Y644D01*
X0Y643D02*
X7Y643D01*
X434Y643D02*
X441Y643D01*
X1382Y643D02*
X1389Y643D01*
X0Y642D02*
X7Y642D01*
X434Y642D02*
X441Y642D01*
X1382Y642D02*
X1389Y642D01*
X0Y641D02*
X7Y641D01*
X434Y641D02*
X441Y641D01*
X1382Y641D02*
X1389Y641D01*
X0Y640D02*
X7Y640D01*
X434Y640D02*
X441Y640D01*
X1382Y640D02*
X1389Y640D01*
X0Y639D02*
X7Y639D01*
X434Y639D02*
X441Y639D01*
X1382Y639D02*
X1389Y639D01*
X0Y638D02*
X7Y638D01*
X434Y638D02*
X441Y638D01*
X1382Y638D02*
X1389Y638D01*
X0Y637D02*
X7Y637D01*
X434Y637D02*
X441Y637D01*
X1382Y637D02*
X1389Y637D01*
X0Y636D02*
X7Y636D01*
X434Y636D02*
X441Y636D01*
X1382Y636D02*
X1389Y636D01*
X0Y635D02*
X7Y635D01*
X434Y635D02*
X441Y635D01*
X1382Y635D02*
X1389Y635D01*
X0Y634D02*
X7Y634D01*
X1382Y634D02*
X1389Y634D01*
X0Y633D02*
X7Y633D01*
X1382Y633D02*
X1389Y633D01*
X0Y632D02*
X7Y632D01*
X1382Y632D02*
X1389Y632D01*
X0Y631D02*
X7Y631D01*
X1382Y631D02*
X1389Y631D01*
X0Y630D02*
X7Y630D01*
X1382Y630D02*
X1389Y630D01*
X0Y629D02*
X7Y629D01*
X1382Y629D02*
X1389Y629D01*
X0Y628D02*
X7Y628D01*
X1382Y628D02*
X1389Y628D01*
X0Y627D02*
X7Y627D01*
X1382Y627D02*
X1389Y627D01*
X0Y626D02*
X7Y626D01*
X1382Y626D02*
X1389Y626D01*
X0Y625D02*
X7Y625D01*
X1382Y625D02*
X1389Y625D01*
X0Y624D02*
X7Y624D01*
X1382Y624D02*
X1389Y624D01*
X0Y623D02*
X7Y623D01*
X1382Y623D02*
X1389Y623D01*
X0Y622D02*
X7Y622D01*
X1382Y622D02*
X1389Y622D01*
X0Y621D02*
X7Y621D01*
X1382Y621D02*
X1389Y621D01*
X0Y620D02*
X7Y620D01*
X1382Y620D02*
X1389Y620D01*
X0Y619D02*
X7Y619D01*
X1382Y619D02*
X1389Y619D01*
X0Y618D02*
X7Y618D01*
X1382Y618D02*
X1389Y618D01*
X0Y617D02*
X7Y617D01*
X1382Y617D02*
X1389Y617D01*
X0Y616D02*
X7Y616D01*
X1382Y616D02*
X1389Y616D01*
X0Y615D02*
X7Y615D01*
X1382Y615D02*
X1389Y615D01*
X0Y614D02*
X7Y614D01*
X1382Y614D02*
X1389Y614D01*
X0Y613D02*
X7Y613D01*
X1382Y613D02*
X1389Y613D01*
X0Y612D02*
X7Y612D01*
X1382Y612D02*
X1389Y612D01*
X0Y611D02*
X7Y611D01*
X1382Y611D02*
X1389Y611D01*
X0Y610D02*
X7Y610D01*
X1382Y610D02*
X1389Y610D01*
X0Y609D02*
X7Y609D01*
X1382Y609D02*
X1389Y609D01*
X0Y608D02*
X7Y608D01*
X1382Y608D02*
X1389Y608D01*
X0Y607D02*
X7Y607D01*
X1382Y607D02*
X1389Y607D01*
X0Y606D02*
X7Y606D01*
X1382Y606D02*
X1389Y606D01*
X0Y605D02*
X7Y605D01*
X1382Y605D02*
X1389Y605D01*
X0Y604D02*
X7Y604D01*
X1382Y604D02*
X1389Y604D01*
X0Y603D02*
X7Y603D01*
X1382Y603D02*
X1389Y603D01*
X0Y602D02*
X7Y602D01*
X1382Y602D02*
X1389Y602D01*
X0Y601D02*
X7Y601D01*
X1382Y601D02*
X1389Y601D01*
X0Y600D02*
X7Y600D01*
X1382Y600D02*
X1389Y600D01*
X0Y599D02*
X7Y599D01*
X1382Y599D02*
X1389Y599D01*
X0Y598D02*
X7Y598D01*
X1382Y598D02*
X1389Y598D01*
X0Y597D02*
X7Y597D01*
X1382Y597D02*
X1389Y597D01*
X0Y596D02*
X7Y596D01*
X1382Y596D02*
X1389Y596D01*
X0Y595D02*
X7Y595D01*
X1382Y595D02*
X1389Y595D01*
X0Y594D02*
X7Y594D01*
X1382Y594D02*
X1389Y594D01*
X0Y593D02*
X7Y593D01*
X1382Y593D02*
X1389Y593D01*
X0Y592D02*
X7Y592D01*
X1382Y592D02*
X1389Y592D01*
X0Y591D02*
X7Y591D01*
X1382Y591D02*
X1389Y591D01*
X0Y590D02*
X7Y590D01*
X1382Y590D02*
X1389Y590D01*
X0Y589D02*
X7Y589D01*
X1382Y589D02*
X1389Y589D01*
X0Y588D02*
X7Y588D01*
X1382Y588D02*
X1389Y588D01*
X0Y587D02*
X7Y587D01*
X1382Y587D02*
X1389Y587D01*
X0Y586D02*
X7Y586D01*
X1382Y586D02*
X1389Y586D01*
X0Y585D02*
X7Y585D01*
X1382Y585D02*
X1389Y585D01*
X0Y584D02*
X7Y584D01*
X1382Y584D02*
X1389Y584D01*
X0Y583D02*
X7Y583D01*
X1382Y583D02*
X1389Y583D01*
X0Y582D02*
X7Y582D01*
X1382Y582D02*
X1389Y582D01*
X0Y581D02*
X7Y581D01*
X1382Y581D02*
X1389Y581D01*
X0Y580D02*
X7Y580D01*
X1382Y580D02*
X1389Y580D01*
X0Y579D02*
X7Y579D01*
X1382Y579D02*
X1389Y579D01*
X0Y578D02*
X7Y578D01*
X643Y578D02*
X643Y578D01*
X1382Y578D02*
X1389Y578D01*
X0Y577D02*
X7Y577D01*
X642Y577D02*
X644Y577D01*
X1382Y577D02*
X1389Y577D01*
X0Y576D02*
X7Y576D01*
X641Y576D02*
X645Y576D01*
X1382Y576D02*
X1389Y576D01*
X0Y575D02*
X7Y575D01*
X640Y575D02*
X646Y575D01*
X1382Y575D02*
X1389Y575D01*
X0Y574D02*
X7Y574D01*
X639Y574D02*
X645Y574D01*
X1382Y574D02*
X1389Y574D01*
X0Y573D02*
X7Y573D01*
X638Y573D02*
X644Y573D01*
X1382Y573D02*
X1389Y573D01*
X0Y572D02*
X7Y572D01*
X637Y572D02*
X643Y572D01*
X1382Y572D02*
X1389Y572D01*
X0Y571D02*
X7Y571D01*
X636Y571D02*
X642Y571D01*
X1382Y571D02*
X1389Y571D01*
X0Y570D02*
X7Y570D01*
X635Y570D02*
X641Y570D01*
X1382Y570D02*
X1389Y570D01*
X0Y569D02*
X7Y569D01*
X634Y569D02*
X640Y569D01*
X1382Y569D02*
X1389Y569D01*
X0Y568D02*
X7Y568D01*
X633Y568D02*
X639Y568D01*
X1382Y568D02*
X1389Y568D01*
X0Y567D02*
X7Y567D01*
X632Y567D02*
X638Y567D01*
X1382Y567D02*
X1389Y567D01*
X0Y566D02*
X7Y566D01*
X631Y566D02*
X637Y566D01*
X1382Y566D02*
X1389Y566D01*
X0Y565D02*
X7Y565D01*
X630Y565D02*
X636Y565D01*
X1382Y565D02*
X1389Y565D01*
X0Y564D02*
X7Y564D01*
X629Y564D02*
X635Y564D01*
X1382Y564D02*
X1389Y564D01*
X0Y563D02*
X7Y563D01*
X628Y563D02*
X634Y563D01*
X1382Y563D02*
X1389Y563D01*
X0Y562D02*
X7Y562D01*
X627Y562D02*
X633Y562D01*
X1382Y562D02*
X1389Y562D01*
X0Y561D02*
X7Y561D01*
X626Y561D02*
X632Y561D01*
X1382Y561D02*
X1389Y561D01*
X0Y560D02*
X7Y560D01*
X625Y560D02*
X630Y560D01*
X1382Y560D02*
X1389Y560D01*
X0Y559D02*
X7Y559D01*
X624Y559D02*
X629Y559D01*
X1382Y559D02*
X1389Y559D01*
X0Y558D02*
X7Y558D01*
X623Y558D02*
X628Y558D01*
X1382Y558D02*
X1389Y558D01*
X0Y557D02*
X7Y557D01*
X622Y557D02*
X627Y557D01*
X1382Y557D02*
X1389Y557D01*
X0Y556D02*
X7Y556D01*
X621Y556D02*
X626Y556D01*
X1382Y556D02*
X1389Y556D01*
X0Y555D02*
X7Y555D01*
X620Y555D02*
X626Y555D01*
X1382Y555D02*
X1389Y555D01*
X0Y554D02*
X7Y554D01*
X619Y554D02*
X625Y554D01*
X1382Y554D02*
X1389Y554D01*
X0Y553D02*
X7Y553D01*
X618Y553D02*
X624Y553D01*
X1382Y553D02*
X1389Y553D01*
X0Y552D02*
X7Y552D01*
X617Y552D02*
X623Y552D01*
X1382Y552D02*
X1389Y552D01*
X0Y551D02*
X7Y551D01*
X616Y551D02*
X622Y551D01*
X1382Y551D02*
X1389Y551D01*
X0Y550D02*
X7Y550D01*
X615Y550D02*
X621Y550D01*
X1382Y550D02*
X1389Y550D01*
X0Y549D02*
X7Y549D01*
X614Y549D02*
X620Y549D01*
X1382Y549D02*
X1389Y549D01*
X0Y548D02*
X7Y548D01*
X613Y548D02*
X619Y548D01*
X1382Y548D02*
X1389Y548D01*
X0Y547D02*
X7Y547D01*
X612Y547D02*
X618Y547D01*
X1382Y547D02*
X1389Y547D01*
X0Y546D02*
X7Y546D01*
X611Y546D02*
X617Y546D01*
X1382Y546D02*
X1389Y546D01*
X0Y545D02*
X7Y545D01*
X610Y545D02*
X616Y545D01*
X1382Y545D02*
X1389Y545D01*
X0Y544D02*
X7Y544D01*
X609Y544D02*
X615Y544D01*
X1382Y544D02*
X1389Y544D01*
X0Y543D02*
X7Y543D01*
X609Y543D02*
X614Y543D01*
X1382Y543D02*
X1389Y543D01*
X0Y542D02*
X7Y542D01*
X610Y542D02*
X613Y542D01*
X1382Y542D02*
X1389Y542D01*
X0Y541D02*
X7Y541D01*
X611Y541D02*
X612Y541D01*
X1382Y541D02*
X1389Y541D01*
X0Y540D02*
X7Y540D01*
X1382Y540D02*
X1389Y540D01*
X0Y539D02*
X7Y539D01*
X1382Y539D02*
X1389Y539D01*
X0Y538D02*
X7Y538D01*
X1382Y538D02*
X1389Y538D01*
X0Y537D02*
X7Y537D01*
X1382Y537D02*
X1389Y537D01*
X0Y536D02*
X7Y536D01*
X1382Y536D02*
X1389Y536D01*
X0Y535D02*
X7Y535D01*
X1382Y535D02*
X1389Y535D01*
X0Y534D02*
X7Y534D01*
X1382Y534D02*
X1389Y534D01*
X0Y533D02*
X7Y533D01*
X1382Y533D02*
X1389Y533D01*
X0Y532D02*
X7Y532D01*
X1382Y532D02*
X1389Y532D01*
X0Y531D02*
X7Y531D01*
X1382Y531D02*
X1389Y531D01*
X0Y530D02*
X7Y530D01*
X1382Y530D02*
X1389Y530D01*
X0Y529D02*
X7Y529D01*
X1382Y529D02*
X1389Y529D01*
X0Y528D02*
X7Y528D01*
X1382Y528D02*
X1389Y528D01*
X0Y527D02*
X7Y527D01*
X1382Y527D02*
X1389Y527D01*
X0Y526D02*
X7Y526D01*
X1382Y526D02*
X1389Y526D01*
X0Y525D02*
X7Y525D01*
X1382Y525D02*
X1389Y525D01*
X0Y524D02*
X7Y524D01*
X1382Y524D02*
X1389Y524D01*
X0Y523D02*
X7Y523D01*
X1382Y523D02*
X1389Y523D01*
X0Y522D02*
X7Y522D01*
X1382Y522D02*
X1389Y522D01*
X0Y521D02*
X7Y521D01*
X1382Y521D02*
X1389Y521D01*
X0Y520D02*
X7Y520D01*
X1382Y520D02*
X1389Y520D01*
X0Y519D02*
X7Y519D01*
X1382Y519D02*
X1389Y519D01*
X0Y518D02*
X7Y518D01*
X1382Y518D02*
X1389Y518D01*
X0Y517D02*
X7Y517D01*
X1382Y517D02*
X1389Y517D01*
X0Y516D02*
X7Y516D01*
X1382Y516D02*
X1389Y516D01*
X0Y515D02*
X7Y515D01*
X1382Y515D02*
X1389Y515D01*
X0Y514D02*
X7Y514D01*
X1382Y514D02*
X1389Y514D01*
X0Y513D02*
X7Y513D01*
X1382Y513D02*
X1389Y513D01*
X0Y512D02*
X7Y512D01*
X1382Y512D02*
X1389Y512D01*
X0Y511D02*
X7Y511D01*
X1382Y511D02*
X1389Y511D01*
X0Y510D02*
X7Y510D01*
X1382Y510D02*
X1389Y510D01*
X0Y509D02*
X7Y509D01*
X1382Y509D02*
X1389Y509D01*
X0Y508D02*
X7Y508D01*
X1382Y508D02*
X1389Y508D01*
X0Y507D02*
X7Y507D01*
X1382Y507D02*
X1389Y507D01*
X0Y506D02*
X7Y506D01*
X1382Y506D02*
X1389Y506D01*
X0Y505D02*
X7Y505D01*
X1382Y505D02*
X1389Y505D01*
X0Y504D02*
X7Y504D01*
X1382Y504D02*
X1389Y504D01*
X0Y503D02*
X7Y503D01*
X1382Y503D02*
X1389Y503D01*
X0Y502D02*
X7Y502D01*
X1382Y502D02*
X1389Y502D01*
X0Y501D02*
X7Y501D01*
X1382Y501D02*
X1389Y501D01*
X0Y500D02*
X7Y500D01*
X1382Y500D02*
X1389Y500D01*
X0Y499D02*
X7Y499D01*
X1382Y499D02*
X1389Y499D01*
X0Y498D02*
X7Y498D01*
X1382Y498D02*
X1389Y498D01*
X0Y497D02*
X7Y497D01*
X1382Y497D02*
X1389Y497D01*
X0Y496D02*
X7Y496D01*
X1382Y496D02*
X1389Y496D01*
X0Y495D02*
X7Y495D01*
X1382Y495D02*
X1389Y495D01*
X0Y494D02*
X7Y494D01*
X1382Y494D02*
X1389Y494D01*
X0Y493D02*
X7Y493D01*
X1382Y493D02*
X1389Y493D01*
X0Y492D02*
X7Y492D01*
X1382Y492D02*
X1389Y492D01*
X0Y491D02*
X7Y491D01*
X1382Y491D02*
X1389Y491D01*
X0Y490D02*
X7Y490D01*
X1382Y490D02*
X1389Y490D01*
X0Y489D02*
X7Y489D01*
X1382Y489D02*
X1389Y489D01*
X0Y488D02*
X7Y488D01*
X1382Y488D02*
X1389Y488D01*
X0Y487D02*
X7Y487D01*
X1382Y487D02*
X1389Y487D01*
X0Y486D02*
X7Y486D01*
X1382Y486D02*
X1389Y486D01*
X0Y485D02*
X7Y485D01*
X1382Y485D02*
X1389Y485D01*
X0Y484D02*
X7Y484D01*
X1382Y484D02*
X1389Y484D01*
X0Y483D02*
X7Y483D01*
X1382Y483D02*
X1389Y483D01*
X0Y482D02*
X7Y482D01*
X1382Y482D02*
X1389Y482D01*
X0Y481D02*
X7Y481D01*
X1382Y481D02*
X1389Y481D01*
X0Y480D02*
X7Y480D01*
X1382Y480D02*
X1389Y480D01*
X0Y479D02*
X7Y479D01*
X1382Y479D02*
X1389Y479D01*
X0Y478D02*
X7Y478D01*
X1382Y478D02*
X1389Y478D01*
X0Y477D02*
X7Y477D01*
X1382Y477D02*
X1389Y477D01*
X0Y476D02*
X7Y476D01*
X1382Y476D02*
X1389Y476D01*
X0Y475D02*
X7Y475D01*
X1382Y475D02*
X1389Y475D01*
X0Y474D02*
X7Y474D01*
X1382Y474D02*
X1389Y474D01*
X0Y473D02*
X7Y473D01*
X1382Y473D02*
X1389Y473D01*
X0Y472D02*
X7Y472D01*
X1382Y472D02*
X1389Y472D01*
X0Y471D02*
X7Y471D01*
X1382Y471D02*
X1389Y471D01*
X0Y470D02*
X7Y470D01*
X1382Y470D02*
X1389Y470D01*
X0Y469D02*
X7Y469D01*
X1382Y469D02*
X1389Y469D01*
X0Y468D02*
X7Y468D01*
X1382Y468D02*
X1389Y468D01*
X0Y467D02*
X7Y467D01*
X1382Y467D02*
X1389Y467D01*
X0Y466D02*
X7Y466D01*
X1382Y466D02*
X1389Y466D01*
X0Y465D02*
X7Y465D01*
X1382Y465D02*
X1389Y465D01*
X0Y464D02*
X7Y464D01*
X1382Y464D02*
X1389Y464D01*
X0Y463D02*
X7Y463D01*
X1382Y463D02*
X1389Y463D01*
X0Y462D02*
X7Y462D01*
X1382Y462D02*
X1389Y462D01*
X0Y461D02*
X7Y461D01*
X1382Y461D02*
X1389Y461D01*
X0Y460D02*
X7Y460D01*
X1382Y460D02*
X1389Y460D01*
X0Y459D02*
X7Y459D01*
X1382Y459D02*
X1389Y459D01*
X0Y458D02*
X7Y458D01*
X1382Y458D02*
X1389Y458D01*
X0Y457D02*
X7Y457D01*
X1382Y457D02*
X1389Y457D01*
X0Y456D02*
X7Y456D01*
X1382Y456D02*
X1389Y456D01*
X0Y455D02*
X7Y455D01*
X1382Y455D02*
X1389Y455D01*
X0Y454D02*
X7Y454D01*
X1382Y454D02*
X1389Y454D01*
X0Y453D02*
X7Y453D01*
X1382Y453D02*
X1389Y453D01*
X0Y452D02*
X7Y452D01*
X1382Y452D02*
X1389Y452D01*
X0Y451D02*
X7Y451D01*
X1382Y451D02*
X1389Y451D01*
X0Y450D02*
X7Y450D01*
X1382Y450D02*
X1389Y450D01*
X0Y449D02*
X7Y449D01*
X1382Y449D02*
X1389Y449D01*
X0Y448D02*
X7Y448D01*
X1382Y448D02*
X1389Y448D01*
X0Y447D02*
X7Y447D01*
X1382Y447D02*
X1389Y447D01*
X0Y446D02*
X7Y446D01*
X1382Y446D02*
X1389Y446D01*
X0Y445D02*
X7Y445D01*
X1382Y445D02*
X1389Y445D01*
X0Y444D02*
X7Y444D01*
X1145Y444D02*
X1147Y444D01*
X1171Y444D02*
X1189Y444D01*
X1382Y444D02*
X1389Y444D01*
X0Y443D02*
X7Y443D01*
X1144Y443D02*
X1148Y443D01*
X1170Y443D02*
X1189Y443D01*
X1382Y443D02*
X1389Y443D01*
X0Y442D02*
X7Y442D01*
X1143Y442D02*
X1149Y442D01*
X1169Y442D02*
X1189Y442D01*
X1382Y442D02*
X1389Y442D01*
X0Y441D02*
X7Y441D01*
X1143Y441D02*
X1149Y441D01*
X1169Y441D02*
X1189Y441D01*
X1382Y441D02*
X1389Y441D01*
X0Y440D02*
X7Y440D01*
X1143Y440D02*
X1149Y440D01*
X1169Y440D02*
X1189Y440D01*
X1382Y440D02*
X1389Y440D01*
X0Y439D02*
X7Y439D01*
X1143Y439D02*
X1149Y439D01*
X1169Y439D02*
X1189Y439D01*
X1382Y439D02*
X1389Y439D01*
X0Y438D02*
X7Y438D01*
X1143Y438D02*
X1149Y438D01*
X1170Y438D02*
X1189Y438D01*
X1382Y438D02*
X1389Y438D01*
X0Y437D02*
X7Y437D01*
X1143Y437D02*
X1149Y437D01*
X1183Y437D02*
X1189Y437D01*
X1382Y437D02*
X1389Y437D01*
X0Y436D02*
X7Y436D01*
X1143Y436D02*
X1149Y436D01*
X1183Y436D02*
X1189Y436D01*
X1382Y436D02*
X1389Y436D01*
X0Y435D02*
X7Y435D01*
X1143Y435D02*
X1149Y435D01*
X1183Y435D02*
X1189Y435D01*
X1382Y435D02*
X1389Y435D01*
X0Y434D02*
X7Y434D01*
X1143Y434D02*
X1149Y434D01*
X1183Y434D02*
X1189Y434D01*
X1382Y434D02*
X1389Y434D01*
X0Y433D02*
X7Y433D01*
X1143Y433D02*
X1149Y433D01*
X1183Y433D02*
X1189Y433D01*
X1382Y433D02*
X1389Y433D01*
X0Y432D02*
X7Y432D01*
X1143Y432D02*
X1149Y432D01*
X1183Y432D02*
X1189Y432D01*
X1382Y432D02*
X1389Y432D01*
X0Y431D02*
X7Y431D01*
X1143Y431D02*
X1149Y431D01*
X1183Y431D02*
X1189Y431D01*
X1382Y431D02*
X1389Y431D01*
X0Y430D02*
X7Y430D01*
X1143Y430D02*
X1149Y430D01*
X1183Y430D02*
X1189Y430D01*
X1382Y430D02*
X1389Y430D01*
X0Y429D02*
X7Y429D01*
X1143Y429D02*
X1149Y429D01*
X1183Y429D02*
X1189Y429D01*
X1382Y429D02*
X1389Y429D01*
X0Y428D02*
X7Y428D01*
X1143Y428D02*
X1149Y428D01*
X1183Y428D02*
X1189Y428D01*
X1382Y428D02*
X1389Y428D01*
X0Y427D02*
X7Y427D01*
X1143Y427D02*
X1149Y427D01*
X1183Y427D02*
X1189Y427D01*
X1382Y427D02*
X1389Y427D01*
X0Y426D02*
X7Y426D01*
X1143Y426D02*
X1149Y426D01*
X1183Y426D02*
X1189Y426D01*
X1382Y426D02*
X1389Y426D01*
X0Y425D02*
X7Y425D01*
X1143Y425D02*
X1149Y425D01*
X1183Y425D02*
X1189Y425D01*
X1382Y425D02*
X1389Y425D01*
X0Y424D02*
X7Y424D01*
X1143Y424D02*
X1149Y424D01*
X1183Y424D02*
X1189Y424D01*
X1382Y424D02*
X1389Y424D01*
X0Y423D02*
X7Y423D01*
X1143Y423D02*
X1149Y423D01*
X1183Y423D02*
X1189Y423D01*
X1382Y423D02*
X1389Y423D01*
X0Y422D02*
X7Y422D01*
X1143Y422D02*
X1149Y422D01*
X1183Y422D02*
X1189Y422D01*
X1382Y422D02*
X1389Y422D01*
X0Y421D02*
X7Y421D01*
X1143Y421D02*
X1149Y421D01*
X1183Y421D02*
X1189Y421D01*
X1382Y421D02*
X1389Y421D01*
X0Y420D02*
X7Y420D01*
X1143Y420D02*
X1149Y420D01*
X1183Y420D02*
X1189Y420D01*
X1382Y420D02*
X1389Y420D01*
X0Y419D02*
X7Y419D01*
X1143Y419D02*
X1149Y419D01*
X1183Y419D02*
X1189Y419D01*
X1382Y419D02*
X1389Y419D01*
X0Y418D02*
X7Y418D01*
X1143Y418D02*
X1149Y418D01*
X1183Y418D02*
X1189Y418D01*
X1382Y418D02*
X1389Y418D01*
X0Y417D02*
X7Y417D01*
X1143Y417D02*
X1149Y417D01*
X1183Y417D02*
X1189Y417D01*
X1382Y417D02*
X1389Y417D01*
X0Y416D02*
X7Y416D01*
X1143Y416D02*
X1149Y416D01*
X1183Y416D02*
X1189Y416D01*
X1382Y416D02*
X1389Y416D01*
X0Y415D02*
X7Y415D01*
X1143Y415D02*
X1149Y415D01*
X1183Y415D02*
X1189Y415D01*
X1382Y415D02*
X1389Y415D01*
X0Y414D02*
X7Y414D01*
X1123Y414D02*
X1127Y414D01*
X1143Y414D02*
X1149Y414D01*
X1183Y414D02*
X1189Y414D01*
X1198Y414D02*
X1201Y414D01*
X1382Y414D02*
X1389Y414D01*
X0Y413D02*
X7Y413D01*
X1123Y413D02*
X1128Y413D01*
X1143Y413D02*
X1149Y413D01*
X1183Y413D02*
X1189Y413D01*
X1197Y413D02*
X1202Y413D01*
X1382Y413D02*
X1389Y413D01*
X0Y412D02*
X7Y412D01*
X1122Y412D02*
X1128Y412D01*
X1143Y412D02*
X1149Y412D01*
X1183Y412D02*
X1189Y412D01*
X1197Y412D02*
X1202Y412D01*
X1382Y412D02*
X1389Y412D01*
X0Y411D02*
X7Y411D01*
X1122Y411D02*
X1128Y411D01*
X1143Y411D02*
X1149Y411D01*
X1183Y411D02*
X1189Y411D01*
X1196Y411D02*
X1202Y411D01*
X1382Y411D02*
X1389Y411D01*
X0Y410D02*
X7Y410D01*
X1122Y410D02*
X1128Y410D01*
X1143Y410D02*
X1149Y410D01*
X1183Y410D02*
X1189Y410D01*
X1196Y410D02*
X1202Y410D01*
X1382Y410D02*
X1389Y410D01*
X0Y409D02*
X7Y409D01*
X1122Y409D02*
X1128Y409D01*
X1143Y409D02*
X1149Y409D01*
X1183Y409D02*
X1189Y409D01*
X1196Y409D02*
X1202Y409D01*
X1382Y409D02*
X1389Y409D01*
X0Y408D02*
X7Y408D01*
X1122Y408D02*
X1128Y408D01*
X1143Y408D02*
X1149Y408D01*
X1183Y408D02*
X1189Y408D01*
X1196Y408D02*
X1202Y408D01*
X1382Y408D02*
X1389Y408D01*
X0Y407D02*
X7Y407D01*
X1122Y407D02*
X1128Y407D01*
X1143Y407D02*
X1149Y407D01*
X1183Y407D02*
X1189Y407D01*
X1196Y407D02*
X1202Y407D01*
X1382Y407D02*
X1389Y407D01*
X0Y406D02*
X7Y406D01*
X1122Y406D02*
X1128Y406D01*
X1143Y406D02*
X1149Y406D01*
X1183Y406D02*
X1189Y406D01*
X1196Y406D02*
X1202Y406D01*
X1382Y406D02*
X1389Y406D01*
X0Y405D02*
X7Y405D01*
X1122Y405D02*
X1128Y405D01*
X1143Y405D02*
X1149Y405D01*
X1183Y405D02*
X1189Y405D01*
X1196Y405D02*
X1202Y405D01*
X1382Y405D02*
X1389Y405D01*
X0Y404D02*
X7Y404D01*
X1122Y404D02*
X1128Y404D01*
X1143Y404D02*
X1149Y404D01*
X1183Y404D02*
X1189Y404D01*
X1196Y404D02*
X1202Y404D01*
X1382Y404D02*
X1389Y404D01*
X0Y403D02*
X7Y403D01*
X1122Y403D02*
X1128Y403D01*
X1143Y403D02*
X1149Y403D01*
X1183Y403D02*
X1189Y403D01*
X1196Y403D02*
X1202Y403D01*
X1382Y403D02*
X1389Y403D01*
X0Y402D02*
X7Y402D01*
X1122Y402D02*
X1128Y402D01*
X1143Y402D02*
X1149Y402D01*
X1183Y402D02*
X1189Y402D01*
X1196Y402D02*
X1202Y402D01*
X1382Y402D02*
X1389Y402D01*
X0Y401D02*
X7Y401D01*
X1122Y401D02*
X1128Y401D01*
X1143Y401D02*
X1149Y401D01*
X1183Y401D02*
X1189Y401D01*
X1196Y401D02*
X1202Y401D01*
X1382Y401D02*
X1389Y401D01*
X0Y400D02*
X7Y400D01*
X1122Y400D02*
X1128Y400D01*
X1143Y400D02*
X1149Y400D01*
X1183Y400D02*
X1189Y400D01*
X1196Y400D02*
X1202Y400D01*
X1382Y400D02*
X1389Y400D01*
X0Y399D02*
X7Y399D01*
X1122Y399D02*
X1129Y399D01*
X1142Y399D02*
X1149Y399D01*
X1183Y399D02*
X1189Y399D01*
X1196Y399D02*
X1202Y399D01*
X1382Y399D02*
X1389Y399D01*
X0Y398D02*
X7Y398D01*
X1122Y398D02*
X1130Y398D01*
X1141Y398D02*
X1148Y398D01*
X1183Y398D02*
X1189Y398D01*
X1196Y398D02*
X1202Y398D01*
X1382Y398D02*
X1389Y398D01*
X0Y397D02*
X7Y397D01*
X1123Y397D02*
X1148Y397D01*
X1171Y397D02*
X1202Y397D01*
X1382Y397D02*
X1389Y397D01*
X0Y396D02*
X7Y396D01*
X1123Y396D02*
X1148Y396D01*
X1170Y396D02*
X1202Y396D01*
X1382Y396D02*
X1389Y396D01*
X0Y395D02*
X7Y395D01*
X1124Y395D02*
X1147Y395D01*
X1169Y395D02*
X1202Y395D01*
X1382Y395D02*
X1389Y395D01*
X0Y394D02*
X7Y394D01*
X1125Y394D02*
X1146Y394D01*
X1169Y394D02*
X1202Y394D01*
X1382Y394D02*
X1389Y394D01*
X0Y393D02*
X7Y393D01*
X1126Y393D02*
X1145Y393D01*
X1169Y393D02*
X1202Y393D01*
X1382Y393D02*
X1389Y393D01*
X0Y392D02*
X7Y392D01*
X1127Y392D02*
X1144Y392D01*
X1169Y392D02*
X1202Y392D01*
X1382Y392D02*
X1389Y392D01*
X0Y391D02*
X7Y391D01*
X1129Y391D02*
X1142Y391D01*
X1170Y391D02*
X1201Y391D01*
X1382Y391D02*
X1389Y391D01*
X0Y390D02*
X7Y390D01*
X1382Y390D02*
X1389Y390D01*
X0Y389D02*
X7Y389D01*
X1382Y389D02*
X1389Y389D01*
X0Y388D02*
X7Y388D01*
X1382Y388D02*
X1389Y388D01*
X0Y387D02*
X7Y387D01*
X1382Y387D02*
X1389Y387D01*
X0Y386D02*
X7Y386D01*
X1382Y386D02*
X1389Y386D01*
X0Y385D02*
X7Y385D01*
X1382Y385D02*
X1389Y385D01*
X0Y384D02*
X7Y384D01*
X1382Y384D02*
X1389Y384D01*
X0Y383D02*
X7Y383D01*
X1382Y383D02*
X1389Y383D01*
X0Y382D02*
X7Y382D01*
X1382Y382D02*
X1389Y382D01*
X0Y381D02*
X7Y381D01*
X1382Y381D02*
X1389Y381D01*
X0Y380D02*
X7Y380D01*
X1382Y380D02*
X1389Y380D01*
X0Y379D02*
X7Y379D01*
X1382Y379D02*
X1389Y379D01*
X0Y378D02*
X7Y378D01*
X1076Y378D02*
X1077Y378D01*
X1382Y378D02*
X1389Y378D01*
X0Y377D02*
X7Y377D01*
X1075Y377D02*
X1078Y377D01*
X1382Y377D02*
X1389Y377D01*
X0Y376D02*
X7Y376D01*
X1074Y376D02*
X1079Y376D01*
X1382Y376D02*
X1389Y376D01*
X0Y375D02*
X7Y375D01*
X1074Y375D02*
X1080Y375D01*
X1382Y375D02*
X1389Y375D01*
X0Y374D02*
X7Y374D01*
X1075Y374D02*
X1081Y374D01*
X1382Y374D02*
X1389Y374D01*
X0Y373D02*
X7Y373D01*
X1076Y373D02*
X1082Y373D01*
X1382Y373D02*
X1389Y373D01*
X0Y372D02*
X7Y372D01*
X1077Y372D02*
X1083Y372D01*
X1382Y372D02*
X1389Y372D01*
X0Y371D02*
X7Y371D01*
X1078Y371D02*
X1084Y371D01*
X1382Y371D02*
X1389Y371D01*
X0Y370D02*
X7Y370D01*
X1079Y370D02*
X1085Y370D01*
X1382Y370D02*
X1389Y370D01*
X0Y369D02*
X7Y369D01*
X1080Y369D02*
X1086Y369D01*
X1382Y369D02*
X1389Y369D01*
X0Y368D02*
X7Y368D01*
X747Y368D02*
X749Y368D01*
X774Y368D02*
X799Y368D01*
X1081Y368D02*
X1087Y368D01*
X1382Y368D02*
X1389Y368D01*
X0Y367D02*
X7Y367D01*
X746Y367D02*
X750Y367D01*
X772Y367D02*
X802Y367D01*
X1082Y367D02*
X1088Y367D01*
X1382Y367D02*
X1389Y367D01*
X0Y366D02*
X7Y366D01*
X745Y366D02*
X751Y366D01*
X772Y366D02*
X803Y366D01*
X1083Y366D02*
X1089Y366D01*
X1382Y366D02*
X1389Y366D01*
X0Y365D02*
X7Y365D01*
X745Y365D02*
X751Y365D01*
X771Y365D02*
X804Y365D01*
X1084Y365D02*
X1090Y365D01*
X1382Y365D02*
X1389Y365D01*
X0Y364D02*
X7Y364D01*
X745Y364D02*
X751Y364D01*
X771Y364D02*
X804Y364D01*
X1085Y364D02*
X1091Y364D01*
X1382Y364D02*
X1389Y364D01*
X0Y363D02*
X7Y363D01*
X745Y363D02*
X751Y363D01*
X772Y363D02*
X805Y363D01*
X1086Y363D02*
X1092Y363D01*
X1382Y363D02*
X1389Y363D01*
X0Y362D02*
X7Y362D01*
X745Y362D02*
X751Y362D01*
X773Y362D02*
X805Y362D01*
X1087Y362D02*
X1093Y362D01*
X1382Y362D02*
X1389Y362D01*
X0Y361D02*
X7Y361D01*
X745Y361D02*
X751Y361D01*
X799Y361D02*
X805Y361D01*
X1088Y361D02*
X1094Y361D01*
X1382Y361D02*
X1389Y361D01*
X0Y360D02*
X7Y360D01*
X745Y360D02*
X751Y360D01*
X799Y360D02*
X805Y360D01*
X1089Y360D02*
X1095Y360D01*
X1382Y360D02*
X1389Y360D01*
X0Y359D02*
X7Y359D01*
X745Y359D02*
X751Y359D01*
X799Y359D02*
X805Y359D01*
X1090Y359D02*
X1096Y359D01*
X1382Y359D02*
X1389Y359D01*
X0Y358D02*
X7Y358D01*
X745Y358D02*
X751Y358D01*
X799Y358D02*
X805Y358D01*
X1092Y358D02*
X1097Y358D01*
X1382Y358D02*
X1389Y358D01*
X0Y357D02*
X7Y357D01*
X745Y357D02*
X751Y357D01*
X799Y357D02*
X805Y357D01*
X1092Y357D02*
X1098Y357D01*
X1382Y357D02*
X1389Y357D01*
X0Y356D02*
X7Y356D01*
X745Y356D02*
X751Y356D01*
X799Y356D02*
X805Y356D01*
X1093Y356D02*
X1099Y356D01*
X1382Y356D02*
X1389Y356D01*
X0Y355D02*
X7Y355D01*
X745Y355D02*
X751Y355D01*
X799Y355D02*
X805Y355D01*
X1094Y355D02*
X1100Y355D01*
X1382Y355D02*
X1389Y355D01*
X0Y354D02*
X7Y354D01*
X745Y354D02*
X751Y354D01*
X799Y354D02*
X805Y354D01*
X1095Y354D02*
X1101Y354D01*
X1382Y354D02*
X1389Y354D01*
X0Y353D02*
X7Y353D01*
X745Y353D02*
X751Y353D01*
X799Y353D02*
X805Y353D01*
X1096Y353D02*
X1102Y353D01*
X1382Y353D02*
X1389Y353D01*
X0Y352D02*
X7Y352D01*
X745Y352D02*
X751Y352D01*
X799Y352D02*
X805Y352D01*
X1097Y352D02*
X1103Y352D01*
X1382Y352D02*
X1389Y352D01*
X0Y351D02*
X7Y351D01*
X745Y351D02*
X751Y351D01*
X799Y351D02*
X805Y351D01*
X1098Y351D02*
X1104Y351D01*
X1382Y351D02*
X1389Y351D01*
X0Y350D02*
X7Y350D01*
X745Y350D02*
X751Y350D01*
X799Y350D02*
X805Y350D01*
X1099Y350D02*
X1105Y350D01*
X1382Y350D02*
X1389Y350D01*
X0Y349D02*
X7Y349D01*
X745Y349D02*
X751Y349D01*
X799Y349D02*
X805Y349D01*
X1100Y349D02*
X1106Y349D01*
X1382Y349D02*
X1389Y349D01*
X0Y348D02*
X7Y348D01*
X745Y348D02*
X751Y348D01*
X799Y348D02*
X805Y348D01*
X1101Y348D02*
X1107Y348D01*
X1382Y348D02*
X1389Y348D01*
X0Y347D02*
X7Y347D01*
X745Y347D02*
X751Y347D01*
X799Y347D02*
X805Y347D01*
X1102Y347D02*
X1108Y347D01*
X1382Y347D02*
X1389Y347D01*
X0Y346D02*
X7Y346D01*
X745Y346D02*
X751Y346D01*
X799Y346D02*
X805Y346D01*
X1103Y346D02*
X1109Y346D01*
X1382Y346D02*
X1389Y346D01*
X0Y345D02*
X7Y345D01*
X745Y345D02*
X751Y345D01*
X799Y345D02*
X805Y345D01*
X1104Y345D02*
X1110Y345D01*
X1382Y345D02*
X1389Y345D01*
X0Y344D02*
X7Y344D01*
X745Y344D02*
X751Y344D01*
X775Y344D02*
X805Y344D01*
X1105Y344D02*
X1111Y344D01*
X1382Y344D02*
X1389Y344D01*
X0Y343D02*
X7Y343D01*
X745Y343D02*
X751Y343D01*
X774Y343D02*
X805Y343D01*
X1106Y343D02*
X1110Y343D01*
X1382Y343D02*
X1389Y343D01*
X0Y342D02*
X7Y342D01*
X745Y342D02*
X751Y342D01*
X773Y342D02*
X804Y342D01*
X1107Y342D02*
X1109Y342D01*
X1382Y342D02*
X1389Y342D01*
X0Y341D02*
X7Y341D01*
X745Y341D02*
X751Y341D01*
X772Y341D02*
X804Y341D01*
X1108Y341D02*
X1108Y341D01*
X1382Y341D02*
X1389Y341D01*
X0Y340D02*
X7Y340D01*
X745Y340D02*
X751Y340D01*
X772Y340D02*
X803Y340D01*
X1382Y340D02*
X1389Y340D01*
X0Y339D02*
X7Y339D01*
X745Y339D02*
X751Y339D01*
X771Y339D02*
X802Y339D01*
X1382Y339D02*
X1389Y339D01*
X0Y338D02*
X7Y338D01*
X726Y338D02*
X729Y338D01*
X745Y338D02*
X751Y338D01*
X771Y338D02*
X800Y338D01*
X1382Y338D02*
X1389Y338D01*
X0Y337D02*
X7Y337D01*
X725Y337D02*
X730Y337D01*
X745Y337D02*
X751Y337D01*
X771Y337D02*
X777Y337D01*
X1382Y337D02*
X1389Y337D01*
X0Y336D02*
X7Y336D01*
X725Y336D02*
X730Y336D01*
X745Y336D02*
X751Y336D01*
X771Y336D02*
X777Y336D01*
X1382Y336D02*
X1389Y336D01*
X0Y335D02*
X7Y335D01*
X724Y335D02*
X730Y335D01*
X745Y335D02*
X751Y335D01*
X771Y335D02*
X777Y335D01*
X1382Y335D02*
X1389Y335D01*
X0Y334D02*
X7Y334D01*
X724Y334D02*
X730Y334D01*
X745Y334D02*
X751Y334D01*
X771Y334D02*
X777Y334D01*
X1382Y334D02*
X1389Y334D01*
X0Y333D02*
X7Y333D01*
X724Y333D02*
X730Y333D01*
X745Y333D02*
X751Y333D01*
X771Y333D02*
X777Y333D01*
X1382Y333D02*
X1389Y333D01*
X0Y332D02*
X7Y332D01*
X724Y332D02*
X730Y332D01*
X745Y332D02*
X751Y332D01*
X771Y332D02*
X777Y332D01*
X1382Y332D02*
X1389Y332D01*
X0Y331D02*
X7Y331D01*
X724Y331D02*
X730Y331D01*
X745Y331D02*
X751Y331D01*
X771Y331D02*
X777Y331D01*
X1382Y331D02*
X1389Y331D01*
X0Y330D02*
X7Y330D01*
X724Y330D02*
X730Y330D01*
X745Y330D02*
X751Y330D01*
X771Y330D02*
X777Y330D01*
X1382Y330D02*
X1389Y330D01*
X0Y329D02*
X7Y329D01*
X724Y329D02*
X730Y329D01*
X745Y329D02*
X751Y329D01*
X771Y329D02*
X777Y329D01*
X1382Y329D02*
X1389Y329D01*
X0Y328D02*
X7Y328D01*
X724Y328D02*
X730Y328D01*
X745Y328D02*
X751Y328D01*
X771Y328D02*
X777Y328D01*
X1382Y328D02*
X1389Y328D01*
X0Y327D02*
X7Y327D01*
X724Y327D02*
X730Y327D01*
X745Y327D02*
X751Y327D01*
X771Y327D02*
X777Y327D01*
X1382Y327D02*
X1389Y327D01*
X0Y326D02*
X7Y326D01*
X724Y326D02*
X730Y326D01*
X745Y326D02*
X751Y326D01*
X771Y326D02*
X777Y326D01*
X1382Y326D02*
X1389Y326D01*
X0Y325D02*
X7Y325D01*
X724Y325D02*
X730Y325D01*
X745Y325D02*
X751Y325D01*
X771Y325D02*
X777Y325D01*
X1382Y325D02*
X1389Y325D01*
X0Y324D02*
X7Y324D01*
X725Y324D02*
X731Y324D01*
X745Y324D02*
X751Y324D01*
X771Y324D02*
X777Y324D01*
X1382Y324D02*
X1389Y324D01*
X0Y323D02*
X7Y323D01*
X725Y323D02*
X731Y323D01*
X745Y323D02*
X751Y323D01*
X771Y323D02*
X777Y323D01*
X1382Y323D02*
X1389Y323D01*
X0Y322D02*
X7Y322D01*
X725Y322D02*
X732Y322D01*
X744Y322D02*
X751Y322D01*
X771Y322D02*
X777Y322D01*
X1382Y322D02*
X1389Y322D01*
X0Y321D02*
X7Y321D01*
X725Y321D02*
X751Y321D01*
X771Y321D02*
X802Y321D01*
X1382Y321D02*
X1389Y321D01*
X0Y320D02*
X7Y320D01*
X726Y320D02*
X750Y320D01*
X771Y320D02*
X804Y320D01*
X1382Y320D02*
X1389Y320D01*
X0Y319D02*
X7Y319D01*
X726Y319D02*
X749Y319D01*
X771Y319D02*
X804Y319D01*
X1382Y319D02*
X1389Y319D01*
X0Y318D02*
X7Y318D01*
X727Y318D02*
X749Y318D01*
X771Y318D02*
X805Y318D01*
X1382Y318D02*
X1389Y318D01*
X0Y317D02*
X7Y317D01*
X728Y317D02*
X748Y317D01*
X771Y317D02*
X805Y317D01*
X1382Y317D02*
X1389Y317D01*
X0Y316D02*
X7Y316D01*
X729Y316D02*
X747Y316D01*
X771Y316D02*
X804Y316D01*
X1382Y316D02*
X1389Y316D01*
X0Y315D02*
X7Y315D01*
X731Y315D02*
X745Y315D01*
X771Y315D02*
X804Y315D01*
X1382Y315D02*
X1389Y315D01*
X0Y314D02*
X7Y314D01*
X1382Y314D02*
X1389Y314D01*
X0Y313D02*
X7Y313D01*
X1382Y313D02*
X1389Y313D01*
X0Y312D02*
X7Y312D01*
X1382Y312D02*
X1389Y312D01*
X0Y311D02*
X7Y311D01*
X1382Y311D02*
X1389Y311D01*
X0Y310D02*
X7Y310D01*
X1382Y310D02*
X1389Y310D01*
X0Y309D02*
X7Y309D01*
X1382Y309D02*
X1389Y309D01*
X0Y308D02*
X7Y308D01*
X1382Y308D02*
X1389Y308D01*
X0Y307D02*
X7Y307D01*
X1382Y307D02*
X1389Y307D01*
X0Y306D02*
X7Y306D01*
X1382Y306D02*
X1389Y306D01*
X0Y305D02*
X7Y305D01*
X1382Y305D02*
X1389Y305D01*
X0Y304D02*
X7Y304D01*
X1382Y304D02*
X1389Y304D01*
X0Y303D02*
X7Y303D01*
X1382Y303D02*
X1389Y303D01*
X0Y302D02*
X7Y302D01*
X1382Y302D02*
X1389Y302D01*
X0Y301D02*
X7Y301D01*
X1382Y301D02*
X1389Y301D01*
X0Y300D02*
X7Y300D01*
X1382Y300D02*
X1389Y300D01*
X0Y299D02*
X7Y299D01*
X1382Y299D02*
X1389Y299D01*
X0Y298D02*
X7Y298D01*
X1382Y298D02*
X1389Y298D01*
X0Y297D02*
X7Y297D01*
X1382Y297D02*
X1389Y297D01*
X0Y296D02*
X7Y296D01*
X1382Y296D02*
X1389Y296D01*
X0Y295D02*
X7Y295D01*
X1382Y295D02*
X1389Y295D01*
X0Y294D02*
X7Y294D01*
X1382Y294D02*
X1389Y294D01*
X0Y293D02*
X7Y293D01*
X1382Y293D02*
X1389Y293D01*
X0Y292D02*
X7Y292D01*
X1382Y292D02*
X1389Y292D01*
X0Y291D02*
X7Y291D01*
X1382Y291D02*
X1389Y291D01*
X0Y290D02*
X7Y290D01*
X1382Y290D02*
X1389Y290D01*
X0Y289D02*
X7Y289D01*
X1382Y289D02*
X1389Y289D01*
X0Y288D02*
X7Y288D01*
X1382Y288D02*
X1389Y288D01*
X0Y287D02*
X7Y287D01*
X1382Y287D02*
X1389Y287D01*
X0Y286D02*
X7Y286D01*
X1382Y286D02*
X1389Y286D01*
X0Y285D02*
X7Y285D01*
X1382Y285D02*
X1389Y285D01*
X0Y284D02*
X7Y284D01*
X1382Y284D02*
X1389Y284D01*
X0Y283D02*
X7Y283D01*
X1382Y283D02*
X1389Y283D01*
X0Y282D02*
X7Y282D01*
X1382Y282D02*
X1389Y282D01*
X0Y281D02*
X7Y281D01*
X1382Y281D02*
X1389Y281D01*
X0Y280D02*
X7Y280D01*
X1382Y280D02*
X1389Y280D01*
X0Y279D02*
X7Y279D01*
X1382Y279D02*
X1389Y279D01*
X0Y278D02*
X7Y278D01*
X1382Y278D02*
X1389Y278D01*
X0Y277D02*
X7Y277D01*
X1382Y277D02*
X1389Y277D01*
X0Y276D02*
X7Y276D01*
X1382Y276D02*
X1389Y276D01*
X0Y275D02*
X7Y275D01*
X1382Y275D02*
X1389Y275D01*
X0Y274D02*
X7Y274D01*
X1382Y274D02*
X1389Y274D01*
X0Y273D02*
X7Y273D01*
X1382Y273D02*
X1389Y273D01*
X0Y272D02*
X7Y272D01*
X1382Y272D02*
X1389Y272D01*
X0Y271D02*
X7Y271D01*
X1382Y271D02*
X1389Y271D01*
X0Y270D02*
X7Y270D01*
X1382Y270D02*
X1389Y270D01*
X0Y269D02*
X7Y269D01*
X1382Y269D02*
X1389Y269D01*
X0Y268D02*
X7Y268D01*
X1382Y268D02*
X1389Y268D01*
X0Y267D02*
X7Y267D01*
X1382Y267D02*
X1389Y267D01*
X0Y266D02*
X7Y266D01*
X1382Y266D02*
X1389Y266D01*
X0Y265D02*
X7Y265D01*
X1382Y265D02*
X1389Y265D01*
X0Y264D02*
X7Y264D01*
X1382Y264D02*
X1389Y264D01*
X0Y263D02*
X7Y263D01*
X1382Y263D02*
X1389Y263D01*
X0Y262D02*
X7Y262D01*
X1382Y262D02*
X1389Y262D01*
X0Y261D02*
X7Y261D01*
X1382Y261D02*
X1389Y261D01*
X0Y260D02*
X7Y260D01*
X1382Y260D02*
X1389Y260D01*
X0Y259D02*
X7Y259D01*
X1382Y259D02*
X1389Y259D01*
X0Y258D02*
X7Y258D01*
X1382Y258D02*
X1389Y258D01*
X0Y257D02*
X7Y257D01*
X1382Y257D02*
X1389Y257D01*
X0Y256D02*
X7Y256D01*
X1382Y256D02*
X1389Y256D01*
X0Y255D02*
X7Y255D01*
X1382Y255D02*
X1389Y255D01*
X0Y254D02*
X7Y254D01*
X1382Y254D02*
X1389Y254D01*
X0Y253D02*
X7Y253D01*
X1382Y253D02*
X1389Y253D01*
X0Y252D02*
X7Y252D01*
X1382Y252D02*
X1389Y252D01*
X0Y251D02*
X7Y251D01*
X1382Y251D02*
X1389Y251D01*
X0Y250D02*
X7Y250D01*
X1382Y250D02*
X1389Y250D01*
X0Y249D02*
X7Y249D01*
X1382Y249D02*
X1389Y249D01*
X0Y248D02*
X7Y248D01*
X1382Y248D02*
X1389Y248D01*
X0Y247D02*
X7Y247D01*
X1382Y247D02*
X1389Y247D01*
X0Y246D02*
X7Y246D01*
X1382Y246D02*
X1389Y246D01*
X0Y245D02*
X7Y245D01*
X1382Y245D02*
X1389Y245D01*
X0Y244D02*
X7Y244D01*
X1382Y244D02*
X1389Y244D01*
X0Y243D02*
X7Y243D01*
X1382Y243D02*
X1389Y243D01*
X0Y242D02*
X7Y242D01*
X1382Y242D02*
X1389Y242D01*
X0Y241D02*
X7Y241D01*
X1382Y241D02*
X1389Y241D01*
X0Y240D02*
X7Y240D01*
X1382Y240D02*
X1389Y240D01*
X0Y239D02*
X7Y239D01*
X1382Y239D02*
X1389Y239D01*
X0Y238D02*
X7Y238D01*
X1382Y238D02*
X1389Y238D01*
X0Y237D02*
X7Y237D01*
X1382Y237D02*
X1389Y237D01*
X0Y236D02*
X7Y236D01*
X1382Y236D02*
X1389Y236D01*
X0Y235D02*
X7Y235D01*
X1382Y235D02*
X1389Y235D01*
X0Y234D02*
X7Y234D01*
X1382Y234D02*
X1389Y234D01*
X0Y233D02*
X7Y233D01*
X1382Y233D02*
X1389Y233D01*
X0Y232D02*
X7Y232D01*
X1382Y232D02*
X1389Y232D01*
X0Y231D02*
X7Y231D01*
X1382Y231D02*
X1389Y231D01*
X0Y230D02*
X7Y230D01*
X1382Y230D02*
X1389Y230D01*
X0Y229D02*
X7Y229D01*
X1382Y229D02*
X1389Y229D01*
X0Y228D02*
X7Y228D01*
X1382Y228D02*
X1389Y228D01*
X0Y227D02*
X7Y227D01*
X1382Y227D02*
X1389Y227D01*
X0Y226D02*
X7Y226D01*
X1382Y226D02*
X1389Y226D01*
X0Y225D02*
X7Y225D01*
X1382Y225D02*
X1389Y225D01*
X0Y224D02*
X7Y224D01*
X1382Y224D02*
X1389Y224D01*
X0Y223D02*
X7Y223D01*
X1382Y223D02*
X1389Y223D01*
X0Y222D02*
X7Y222D01*
X1382Y222D02*
X1389Y222D01*
X0Y221D02*
X7Y221D01*
X1382Y221D02*
X1389Y221D01*
X0Y220D02*
X7Y220D01*
X1382Y220D02*
X1389Y220D01*
X0Y219D02*
X7Y219D01*
X1382Y219D02*
X1389Y219D01*
X0Y218D02*
X7Y218D01*
X1382Y218D02*
X1389Y218D01*
X0Y217D02*
X7Y217D01*
X1382Y217D02*
X1389Y217D01*
X0Y216D02*
X7Y216D01*
X1382Y216D02*
X1389Y216D01*
X0Y215D02*
X7Y215D01*
X1382Y215D02*
X1389Y215D01*
X0Y214D02*
X7Y214D01*
X1382Y214D02*
X1389Y214D01*
X0Y213D02*
X7Y213D01*
X1382Y213D02*
X1389Y213D01*
X0Y212D02*
X7Y212D01*
X1382Y212D02*
X1389Y212D01*
X0Y211D02*
X7Y211D01*
X1382Y211D02*
X1389Y211D01*
X0Y210D02*
X7Y210D01*
X1382Y210D02*
X1389Y210D01*
X0Y209D02*
X7Y209D01*
X1382Y209D02*
X1389Y209D01*
X0Y208D02*
X7Y208D01*
X1382Y208D02*
X1389Y208D01*
X0Y207D02*
X7Y207D01*
X1382Y207D02*
X1389Y207D01*
X0Y206D02*
X7Y206D01*
X1382Y206D02*
X1389Y206D01*
X0Y205D02*
X7Y205D01*
X1382Y205D02*
X1389Y205D01*
X0Y204D02*
X7Y204D01*
X1382Y204D02*
X1389Y204D01*
X0Y203D02*
X7Y203D01*
X1382Y203D02*
X1389Y203D01*
X0Y202D02*
X7Y202D01*
X1382Y202D02*
X1389Y202D01*
X0Y201D02*
X7Y201D01*
X1382Y201D02*
X1389Y201D01*
X0Y200D02*
X7Y200D01*
X1382Y200D02*
X1389Y200D01*
X0Y199D02*
X7Y199D01*
X1382Y199D02*
X1389Y199D01*
X0Y198D02*
X7Y198D01*
X1382Y198D02*
X1389Y198D01*
X0Y197D02*
X7Y197D01*
X1382Y197D02*
X1389Y197D01*
X0Y196D02*
X7Y196D01*
X1382Y196D02*
X1389Y196D01*
X0Y195D02*
X7Y195D01*
X1382Y195D02*
X1389Y195D01*
X0Y194D02*
X7Y194D01*
X1382Y194D02*
X1389Y194D01*
X0Y193D02*
X7Y193D01*
X1382Y193D02*
X1389Y193D01*
X0Y192D02*
X7Y192D01*
X1382Y192D02*
X1389Y192D01*
X0Y191D02*
X7Y191D01*
X1382Y191D02*
X1389Y191D01*
X0Y190D02*
X7Y190D01*
X1382Y190D02*
X1389Y190D01*
X0Y189D02*
X7Y189D01*
X1382Y189D02*
X1389Y189D01*
X0Y188D02*
X7Y188D01*
X1382Y188D02*
X1389Y188D01*
X0Y187D02*
X7Y187D01*
X1382Y187D02*
X1389Y187D01*
X0Y186D02*
X7Y186D01*
X1382Y186D02*
X1389Y186D01*
X0Y185D02*
X7Y185D01*
X1382Y185D02*
X1389Y185D01*
X0Y184D02*
X7Y184D01*
X1382Y184D02*
X1389Y184D01*
X0Y183D02*
X7Y183D01*
X1382Y183D02*
X1389Y183D01*
X0Y182D02*
X7Y182D01*
X1382Y182D02*
X1389Y182D01*
X0Y181D02*
X7Y181D01*
X1382Y181D02*
X1389Y181D01*
X0Y180D02*
X7Y180D01*
X1382Y180D02*
X1389Y180D01*
X0Y179D02*
X7Y179D01*
X1382Y179D02*
X1389Y179D01*
X0Y178D02*
X7Y178D01*
X1382Y178D02*
X1389Y178D01*
X0Y177D02*
X7Y177D01*
X1382Y177D02*
X1389Y177D01*
X0Y176D02*
X7Y176D01*
X1382Y176D02*
X1389Y176D01*
X0Y175D02*
X7Y175D01*
X1382Y175D02*
X1389Y175D01*
X0Y174D02*
X7Y174D01*
X1382Y174D02*
X1389Y174D01*
X0Y173D02*
X7Y173D01*
X1382Y173D02*
X1389Y173D01*
X0Y172D02*
X7Y172D01*
X1382Y172D02*
X1389Y172D01*
X0Y171D02*
X7Y171D01*
X1382Y171D02*
X1389Y171D01*
X0Y170D02*
X7Y170D01*
X1382Y170D02*
X1389Y170D01*
X0Y169D02*
X7Y169D01*
X1382Y169D02*
X1389Y169D01*
X0Y168D02*
X7Y168D01*
X1382Y168D02*
X1389Y168D01*
X0Y167D02*
X7Y167D01*
X1382Y167D02*
X1389Y167D01*
X0Y166D02*
X7Y166D01*
X1382Y166D02*
X1389Y166D01*
X0Y165D02*
X7Y165D01*
X1382Y165D02*
X1389Y165D01*
X0Y164D02*
X7Y164D01*
X1382Y164D02*
X1389Y164D01*
X0Y163D02*
X7Y163D01*
X1382Y163D02*
X1389Y163D01*
X0Y162D02*
X7Y162D01*
X1382Y162D02*
X1389Y162D01*
X0Y161D02*
X7Y161D01*
X1382Y161D02*
X1389Y161D01*
X0Y160D02*
X7Y160D01*
X1382Y160D02*
X1389Y160D01*
X0Y159D02*
X7Y159D01*
X1382Y159D02*
X1389Y159D01*
X0Y158D02*
X7Y158D01*
X1382Y158D02*
X1389Y158D01*
X0Y157D02*
X7Y157D01*
X1382Y157D02*
X1389Y157D01*
X0Y156D02*
X7Y156D01*
X1382Y156D02*
X1389Y156D01*
X0Y155D02*
X7Y155D01*
X1382Y155D02*
X1389Y155D01*
X0Y154D02*
X7Y154D01*
X1382Y154D02*
X1389Y154D01*
X0Y153D02*
X7Y153D01*
X1382Y153D02*
X1389Y153D01*
X0Y152D02*
X7Y152D01*
X1382Y152D02*
X1389Y152D01*
X0Y151D02*
X7Y151D01*
X1382Y151D02*
X1389Y151D01*
X0Y150D02*
X7Y150D01*
X1382Y150D02*
X1389Y150D01*
X0Y149D02*
X7Y149D01*
X1382Y149D02*
X1389Y149D01*
X0Y148D02*
X7Y148D01*
X1382Y148D02*
X1389Y148D01*
X0Y147D02*
X7Y147D01*
X1382Y147D02*
X1389Y147D01*
X0Y146D02*
X7Y146D01*
X1382Y146D02*
X1389Y146D01*
X0Y145D02*
X7Y145D01*
X1382Y145D02*
X1389Y145D01*
X0Y144D02*
X7Y144D01*
X1382Y144D02*
X1389Y144D01*
X0Y143D02*
X7Y143D01*
X1382Y143D02*
X1389Y143D01*
X0Y142D02*
X7Y142D01*
X1382Y142D02*
X1389Y142D01*
X0Y141D02*
X7Y141D01*
X1382Y141D02*
X1389Y141D01*
X0Y140D02*
X7Y140D01*
X1382Y140D02*
X1389Y140D01*
X0Y139D02*
X7Y139D01*
X1382Y139D02*
X1389Y139D01*
X0Y138D02*
X7Y138D01*
X1382Y138D02*
X1389Y138D01*
X0Y137D02*
X7Y137D01*
X1382Y137D02*
X1389Y137D01*
X0Y136D02*
X7Y136D01*
X1382Y136D02*
X1389Y136D01*
X0Y135D02*
X7Y135D01*
X1382Y135D02*
X1389Y135D01*
X0Y134D02*
X7Y134D01*
X1382Y134D02*
X1389Y134D01*
X0Y133D02*
X7Y133D01*
X1382Y133D02*
X1389Y133D01*
X0Y132D02*
X7Y132D01*
X1382Y132D02*
X1389Y132D01*
X0Y131D02*
X7Y131D01*
X1382Y131D02*
X1389Y131D01*
X0Y130D02*
X7Y130D01*
X1382Y130D02*
X1389Y130D01*
X0Y129D02*
X7Y129D01*
X1382Y129D02*
X1389Y129D01*
X0Y128D02*
X7Y128D01*
X1382Y128D02*
X1389Y128D01*
X0Y127D02*
X7Y127D01*
X1382Y127D02*
X1389Y127D01*
X0Y126D02*
X7Y126D01*
X1382Y126D02*
X1389Y126D01*
X0Y125D02*
X7Y125D01*
X1382Y125D02*
X1389Y125D01*
X0Y124D02*
X7Y124D01*
X1382Y124D02*
X1389Y124D01*
X0Y123D02*
X7Y123D01*
X1382Y123D02*
X1389Y123D01*
X0Y122D02*
X7Y122D01*
X1382Y122D02*
X1389Y122D01*
X0Y121D02*
X7Y121D01*
X1382Y121D02*
X1389Y121D01*
X0Y120D02*
X7Y120D01*
X1382Y120D02*
X1389Y120D01*
X0Y119D02*
X7Y119D01*
X1382Y119D02*
X1389Y119D01*
X0Y118D02*
X7Y118D01*
X1382Y118D02*
X1389Y118D01*
X0Y117D02*
X7Y117D01*
X1382Y117D02*
X1389Y117D01*
X0Y116D02*
X7Y116D01*
X1382Y116D02*
X1389Y116D01*
X0Y115D02*
X7Y115D01*
X1382Y115D02*
X1389Y115D01*
X0Y114D02*
X7Y114D01*
X1382Y114D02*
X1389Y114D01*
X0Y113D02*
X7Y113D01*
X1382Y113D02*
X1389Y113D01*
X0Y112D02*
X7Y112D01*
X1382Y112D02*
X1389Y112D01*
X0Y111D02*
X7Y111D01*
X1382Y111D02*
X1389Y111D01*
X0Y110D02*
X7Y110D01*
X1382Y110D02*
X1389Y110D01*
X0Y109D02*
X7Y109D01*
X1382Y109D02*
X1389Y109D01*
X0Y108D02*
X7Y108D01*
X1382Y108D02*
X1389Y108D01*
X0Y107D02*
X7Y107D01*
X1382Y107D02*
X1389Y107D01*
X0Y106D02*
X7Y106D01*
X1382Y106D02*
X1389Y106D01*
X0Y105D02*
X7Y105D01*
X1382Y105D02*
X1389Y105D01*
X0Y104D02*
X7Y104D01*
X1382Y104D02*
X1389Y104D01*
X0Y103D02*
X7Y103D01*
X1382Y103D02*
X1389Y103D01*
X0Y102D02*
X7Y102D01*
X1382Y102D02*
X1389Y102D01*
X0Y101D02*
X7Y101D01*
X1382Y101D02*
X1389Y101D01*
X0Y100D02*
X7Y100D01*
X1382Y100D02*
X1389Y100D01*
X0Y99D02*
X7Y99D01*
X1382Y99D02*
X1389Y99D01*
X0Y98D02*
X7Y98D01*
X1382Y98D02*
X1389Y98D01*
X0Y97D02*
X7Y97D01*
X1382Y97D02*
X1389Y97D01*
X0Y96D02*
X7Y96D01*
X1382Y96D02*
X1389Y96D01*
X0Y95D02*
X7Y95D01*
X1382Y95D02*
X1389Y95D01*
X0Y94D02*
X7Y94D01*
X1382Y94D02*
X1389Y94D01*
X0Y93D02*
X7Y93D01*
X1382Y93D02*
X1389Y93D01*
X0Y92D02*
X7Y92D01*
X1382Y92D02*
X1389Y92D01*
X0Y91D02*
X7Y91D01*
X1382Y91D02*
X1389Y91D01*
X0Y90D02*
X7Y90D01*
X1382Y90D02*
X1389Y90D01*
X0Y89D02*
X7Y89D01*
X1382Y89D02*
X1389Y89D01*
X0Y88D02*
X7Y88D01*
X1382Y88D02*
X1389Y88D01*
X0Y87D02*
X7Y87D01*
X1382Y87D02*
X1389Y87D01*
X0Y86D02*
X7Y86D01*
X1382Y86D02*
X1389Y86D01*
X0Y85D02*
X7Y85D01*
X1382Y85D02*
X1389Y85D01*
X0Y84D02*
X7Y84D01*
X1382Y84D02*
X1389Y84D01*
X0Y83D02*
X7Y83D01*
X1382Y83D02*
X1389Y83D01*
X0Y82D02*
X7Y82D01*
X1382Y82D02*
X1389Y82D01*
X0Y81D02*
X7Y81D01*
X1382Y81D02*
X1389Y81D01*
X0Y80D02*
X7Y80D01*
X1382Y80D02*
X1389Y80D01*
X0Y79D02*
X7Y79D01*
X1382Y79D02*
X1389Y79D01*
X0Y78D02*
X7Y78D01*
X1382Y78D02*
X1389Y78D01*
X0Y77D02*
X7Y77D01*
X1382Y77D02*
X1389Y77D01*
X0Y76D02*
X7Y76D01*
X1382Y76D02*
X1389Y76D01*
X0Y75D02*
X7Y75D01*
X1382Y75D02*
X1389Y75D01*
X0Y74D02*
X7Y74D01*
X1382Y74D02*
X1389Y74D01*
X0Y73D02*
X7Y73D01*
X1382Y73D02*
X1389Y73D01*
X0Y72D02*
X7Y72D01*
X1382Y72D02*
X1389Y72D01*
X0Y71D02*
X7Y71D01*
X1382Y71D02*
X1389Y71D01*
X0Y70D02*
X7Y70D01*
X1382Y70D02*
X1389Y70D01*
X0Y69D02*
X7Y69D01*
X1382Y69D02*
X1389Y69D01*
X0Y68D02*
X7Y68D01*
X1382Y68D02*
X1389Y68D01*
X0Y67D02*
X7Y67D01*
X1382Y67D02*
X1389Y67D01*
X0Y66D02*
X7Y66D01*
X1382Y66D02*
X1389Y66D01*
X0Y65D02*
X7Y65D01*
X1382Y65D02*
X1389Y65D01*
X0Y64D02*
X7Y64D01*
X1382Y64D02*
X1389Y64D01*
X0Y63D02*
X7Y63D01*
X1382Y63D02*
X1389Y63D01*
X0Y62D02*
X7Y62D01*
X1382Y62D02*
X1389Y62D01*
X0Y61D02*
X7Y61D01*
X1382Y61D02*
X1389Y61D01*
X0Y60D02*
X7Y60D01*
X1382Y60D02*
X1389Y60D01*
X0Y59D02*
X7Y59D01*
X1382Y59D02*
X1389Y59D01*
X0Y58D02*
X7Y58D01*
X1382Y58D02*
X1389Y58D01*
X0Y57D02*
X7Y57D01*
X1382Y57D02*
X1389Y57D01*
X0Y56D02*
X7Y56D01*
X1382Y56D02*
X1389Y56D01*
X0Y55D02*
X7Y55D01*
X1382Y55D02*
X1389Y55D01*
X0Y54D02*
X7Y54D01*
X1382Y54D02*
X1389Y54D01*
X0Y53D02*
X7Y53D01*
X1382Y53D02*
X1389Y53D01*
X0Y52D02*
X7Y52D01*
X1382Y52D02*
X1389Y52D01*
X0Y51D02*
X7Y51D01*
X1382Y51D02*
X1389Y51D01*
X0Y50D02*
X7Y50D01*
X1382Y50D02*
X1389Y50D01*
X0Y49D02*
X7Y49D01*
X1382Y49D02*
X1389Y49D01*
X0Y48D02*
X7Y48D01*
X1382Y48D02*
X1389Y48D01*
X0Y47D02*
X7Y47D01*
X1382Y47D02*
X1389Y47D01*
X0Y46D02*
X7Y46D01*
X1382Y46D02*
X1389Y46D01*
X0Y45D02*
X7Y45D01*
X1382Y45D02*
X1389Y45D01*
X0Y44D02*
X7Y44D01*
X1382Y44D02*
X1389Y44D01*
X0Y43D02*
X7Y43D01*
X1382Y43D02*
X1389Y43D01*
X0Y42D02*
X7Y42D01*
X1382Y42D02*
X1389Y42D01*
X0Y41D02*
X7Y41D01*
X1382Y41D02*
X1389Y41D01*
X0Y40D02*
X7Y40D01*
X1382Y40D02*
X1389Y40D01*
X0Y39D02*
X7Y39D01*
X1382Y39D02*
X1389Y39D01*
X0Y38D02*
X7Y38D01*
X1382Y38D02*
X1389Y38D01*
X0Y37D02*
X7Y37D01*
X1382Y37D02*
X1389Y37D01*
X0Y36D02*
X7Y36D01*
X1382Y36D02*
X1389Y36D01*
X0Y35D02*
X7Y35D01*
X1382Y35D02*
X1389Y35D01*
X0Y34D02*
X7Y34D01*
X1382Y34D02*
X1389Y34D01*
X0Y33D02*
X7Y33D01*
X1382Y33D02*
X1389Y33D01*
X0Y32D02*
X7Y32D01*
X1382Y32D02*
X1389Y32D01*
X0Y31D02*
X7Y31D01*
X1382Y31D02*
X1389Y31D01*
X0Y30D02*
X7Y30D01*
X1382Y30D02*
X1389Y30D01*
X0Y29D02*
X7Y29D01*
X1382Y29D02*
X1389Y29D01*
X0Y28D02*
X7Y28D01*
X1382Y28D02*
X1389Y28D01*
X0Y27D02*
X7Y27D01*
X1382Y27D02*
X1389Y27D01*
X0Y26D02*
X7Y26D01*
X1382Y26D02*
X1389Y26D01*
X0Y25D02*
X7Y25D01*
X1382Y25D02*
X1389Y25D01*
X0Y24D02*
X7Y24D01*
X1382Y24D02*
X1389Y24D01*
X0Y23D02*
X7Y23D01*
X1382Y23D02*
X1389Y23D01*
X0Y22D02*
X7Y22D01*
X1382Y22D02*
X1389Y22D01*
X0Y21D02*
X7Y21D01*
X1382Y21D02*
X1389Y21D01*
X0Y20D02*
X7Y20D01*
X1382Y20D02*
X1389Y20D01*
X0Y19D02*
X7Y19D01*
X1382Y19D02*
X1389Y19D01*
X0Y18D02*
X7Y18D01*
X1382Y18D02*
X1389Y18D01*
X0Y17D02*
X7Y17D01*
X1382Y17D02*
X1389Y17D01*
X0Y16D02*
X7Y16D01*
X1382Y16D02*
X1389Y16D01*
X0Y15D02*
X7Y15D01*
X1382Y15D02*
X1389Y15D01*
X0Y14D02*
X7Y14D01*
X1382Y14D02*
X1389Y14D01*
X0Y13D02*
X7Y13D01*
X1382Y13D02*
X1389Y13D01*
X0Y12D02*
X7Y12D01*
X1382Y12D02*
X1389Y12D01*
X0Y11D02*
X7Y11D01*
X1382Y11D02*
X1389Y11D01*
X0Y10D02*
X7Y10D01*
X1382Y10D02*
X1389Y10D01*
X0Y9D02*
X1389Y9D01*
X0Y8D02*
X1389Y8D01*
X0Y7D02*
X1389Y7D01*
X0Y6D02*
X1389Y6D01*
X0Y5D02*
X1389Y5D01*
X0Y4D02*
X1389Y4D01*
X0Y3D02*
X1389Y3D01*
X0Y2D02*
X1389Y2D01*
D02*
G04 End of Silk1*
M02*